<?xml version="1.0" encoding="UTF-8"?>
<svg xmlns="http://www.w3.org/2000/svg" xmlns:xlink="http://www.w3.org/1999/xlink" width="38px" height="38px" viewBox="0 0 38 38" version="1.1">
<g id="surface1">
<path style=" stroke:none;fill-rule:nonzero;fill:rgb(80.000001%,97.647059%,55.686277%);fill-opacity:1;" d="M 0 0 C 12.539062 0 25.078125 0 38 0 C 38 12.539062 38 25.078125 38 38 C 25.460938 38 12.921875 38 0 38 C 0 25.460938 0 12.921875 0 0 Z M 0 0 "/>
<path style=" stroke:none;fill-rule:nonzero;fill:rgb(0.392157%,0.784314%,0.392157%);fill-opacity:1;" d="M 22.996094 8.894531 C 23.304688 9.132812 23.582031 9.386719 23.847656 9.671875 C 23.894531 9.71875 23.941406 9.769531 23.988281 9.820312 C 25.035156 10.960938 25.035156 10.960938 25.035156 11.625 C 25.101562 11.625 25.167969 11.625 25.234375 11.625 C 25.492188 12.539062 25.644531 13.375 25.648438 14.328125 C 25.640625 14.941406 25.640625 14.941406 25.914062 15.464844 C 26.144531 15.609375 26.144531 15.609375 26.390625 15.710938 C 26.855469 15.941406 27.054688 16.433594 27.214844 16.898438 C 27.222656 17.046875 27.226562 17.195312 27.226562 17.34375 C 27.226562 17.4375 27.230469 17.527344 27.230469 17.621094 C 27.230469 17.773438 27.230469 17.773438 27.230469 17.925781 C 27.230469 18.03125 27.230469 18.136719 27.230469 18.246094 C 27.234375 18.59375 27.234375 18.945312 27.234375 19.292969 C 27.234375 19.539062 27.234375 19.78125 27.234375 20.023438 C 27.238281 20.535156 27.238281 21.042969 27.238281 21.554688 C 27.238281 22.078125 27.238281 22.601562 27.242188 23.125 C 27.242188 23.753906 27.246094 24.386719 27.246094 25.019531 C 27.246094 25.257812 27.246094 25.5 27.246094 25.742188 C 27.25 26.078125 27.25 26.414062 27.25 26.753906 C 27.25 26.851562 27.25 26.949219 27.25 27.050781 C 27.246094 27.921875 27.066406 28.574219 26.421875 29.207031 C 25.898438 29.582031 25.472656 29.804688 24.816406 29.808594 C 24.707031 29.808594 24.601562 29.8125 24.492188 29.8125 C 24.316406 29.8125 24.316406 29.8125 24.132812 29.8125 C 24.011719 29.8125 23.886719 29.816406 23.757812 29.816406 C 23.347656 29.816406 22.9375 29.820312 22.523438 29.820312 C 22.382812 29.820312 22.242188 29.820312 22.097656 29.824219 C 21.507812 29.824219 20.917969 29.828125 20.328125 29.828125 C 19.484375 29.828125 18.640625 29.832031 17.792969 29.839844 C 17.199219 29.84375 16.605469 29.84375 16.011719 29.84375 C 15.65625 29.84375 15.300781 29.847656 14.945312 29.847656 C 14.550781 29.851562 14.152344 29.851562 13.757812 29.851562 C 13.640625 29.851562 13.523438 29.855469 13.40625 29.855469 C 12.585938 29.851562 11.941406 29.683594 11.300781 29.160156 C 10.597656 28.441406 10.429688 27.46875 10.441406 26.503906 C 10.441406 26.40625 10.441406 26.308594 10.441406 26.207031 C 10.441406 25.886719 10.441406 25.566406 10.445312 25.246094 C 10.445312 25.023438 10.445312 24.800781 10.445312 24.574219 C 10.445312 24.105469 10.445312 23.636719 10.449219 23.167969 C 10.453125 22.570312 10.453125 21.96875 10.453125 21.371094 C 10.453125 20.90625 10.453125 20.445312 10.457031 19.984375 C 10.457031 19.761719 10.457031 19.539062 10.457031 19.320312 C 10.457031 19.011719 10.457031 18.703125 10.460938 18.390625 C 10.460938 18.300781 10.460938 18.210938 10.460938 18.117188 C 10.472656 16.996094 10.804688 16.363281 11.539062 15.53125 C 11.777344 15.335938 11.777344 15.335938 12.171875 15.335938 C 12.171875 15.273438 12.167969 15.210938 12.167969 15.144531 C 12.164062 14.851562 12.160156 14.558594 12.160156 14.269531 C 12.15625 14.167969 12.15625 14.070312 12.15625 13.964844 C 12.148438 13.027344 12.292969 12.269531 12.726562 11.433594 C 12.761719 11.367188 12.796875 11.300781 12.832031 11.230469 C 13.140625 10.652344 13.503906 10.152344 13.953125 9.671875 C 14.039062 9.578125 14.039062 9.578125 14.125 9.480469 C 16.445312 7.046875 20.34375 7.003906 22.996094 8.894531 Z M 22.996094 8.894531 "/>
<path style=" stroke:none;fill-rule:nonzero;fill:rgb(80.000001%,98.039216%,55.686277%);fill-opacity:1;" d="M 18.207031 0 C 18.472656 -0.0273438 18.71875 -0.0390625 18.984375 -0.0351562 C 19.066406 -0.0351562 19.144531 -0.0351562 19.230469 -0.0351562 C 19.5 -0.0351562 19.773438 -0.0351562 20.046875 -0.0351562 C 20.242188 -0.03125 20.4375 -0.0351562 20.632812 -0.0351562 C 21.164062 -0.0351562 21.695312 -0.03125 22.226562 -0.03125 C 22.777344 -0.0273438 23.332031 -0.0273438 23.886719 -0.0273438 C 24.9375 -0.0273438 25.988281 -0.0234375 27.039062 -0.0195312 C 28.457031 -0.015625 29.875 -0.015625 31.292969 -0.015625 C 33.527344 -0.0117188 35.765625 -0.00390625 38 0 C 38 3.996094 38 7.996094 38 12.113281 C 37.871094 12.082031 37.738281 12.046875 37.605469 12.015625 C 37.59375 11.921875 37.59375 11.921875 37.582031 11.828125 C 37.480469 11.183594 37.304688 10.707031 36.8125 10.257812 C 36.390625 9.992188 36.011719 9.859375 35.515625 9.859375 C 35.058594 9.75 35.027344 9.679688 34.789062 9.296875 C 34.707031 9.152344 34.707031 9.152344 34.621094 9.003906 C 34.136719 8.183594 33.511719 7.457031 32.859375 6.765625 C 32.71875 6.613281 32.585938 6.453125 32.457031 6.292969 C 32.28125 6.078125 32.105469 5.910156 31.894531 5.734375 C 31.683594 5.554688 31.46875 5.375 31.265625 5.1875 C 30.371094 4.371094 29.355469 3.726562 28.300781 3.125 C 28.199219 3.0625 28.09375 3 27.984375 2.9375 C 26.375 1.988281 24.484375 1.265625 22.621094 1.011719 C 22.371094 0.976562 22.132812 0.929688 21.886719 0.875 C 21.519531 0.789062 21.15625 0.730469 20.78125 0.683594 C 20.78125 0.621094 20.78125 0.554688 20.78125 0.488281 C 20.460938 0.394531 20.160156 0.371094 19.828125 0.359375 C 19.722656 0.355469 19.617188 0.351562 19.507812 0.347656 C 19.394531 0.34375 19.285156 0.339844 19.171875 0.335938 C 19.007812 0.328125 19.007812 0.328125 18.835938 0.324219 C 18.558594 0.3125 18.285156 0.300781 18.011719 0.292969 C 18.074219 0.195312 18.140625 0.101562 18.207031 0 Z M 18.207031 0 "/>
<path style=" stroke:none;fill-rule:nonzero;fill:rgb(80.000001%,98.039216%,55.686277%);fill-opacity:1;" d="M 37.207031 23.25 C 37.257812 23.347656 37.257812 23.347656 37.308594 23.445312 C 37.472656 23.511719 37.636719 23.578125 37.800781 23.640625 C 38 23.835938 38 23.835938 38.023438 24.082031 C 38.023438 24.238281 38.023438 24.238281 38.023438 24.398438 C 38.023438 24.515625 38.023438 24.636719 38.023438 24.757812 C 38.023438 24.890625 38.023438 25.023438 38.023438 25.15625 C 38.023438 25.296875 38.023438 25.4375 38.023438 25.578125 C 38.023438 25.957031 38.019531 26.335938 38.019531 26.714844 C 38.019531 27.113281 38.019531 27.507812 38.019531 27.90625 C 38.019531 28.65625 38.015625 29.40625 38.015625 30.15625 C 38.011719 31.171875 38.011719 32.1875 38.007812 33.203125 C 38.007812 34.800781 38.003906 36.402344 38 38 C 33.949219 38 29.902344 38 25.730469 38 C 25.695312 37.871094 25.664062 37.742188 25.628906 37.609375 C 25.710938 37.609375 25.796875 37.605469 25.878906 37.605469 C 26.78125 37.566406 27.417969 37.429688 28.046875 36.773438 C 28.203125 36.433594 28.21875 36.230469 28.246094 35.863281 C 28.300781 35.46875 28.34375 35.316406 28.648438 35.054688 C 28.871094 34.925781 29.09375 34.800781 29.320312 34.683594 C 29.710938 34.480469 30.046875 34.230469 30.390625 33.957031 C 30.449219 33.914062 30.507812 33.867188 30.566406 33.820312 C 31.519531 33.085938 31.519531 33.085938 32.328125 32.207031 C 32.371094 32.152344 32.414062 32.097656 32.457031 32.042969 C 32.523438 32.042969 32.589844 32.042969 32.65625 32.042969 C 32.679688 31.988281 32.703125 31.933594 32.726562 31.878906 C 32.886719 31.59375 33.082031 31.375 33.300781 31.132812 C 34.488281 29.75 35.707031 28.027344 36.21875 26.277344 C 36.285156 26.277344 36.347656 26.277344 36.417969 26.277344 C 36.429688 26.199219 36.429688 26.199219 36.441406 26.117188 C 36.5625 25.445312 36.769531 24.820312 37 24.179688 C 37.097656 23.867188 37.164062 23.574219 37.207031 23.25 Z M 37.40625 23.542969 C 37.503906 23.738281 37.503906 23.738281 37.503906 23.738281 Z M 37.40625 23.542969 "/>
<path style=" stroke:none;fill-rule:nonzero;fill:rgb(80.000001%,98.039216%,55.686277%);fill-opacity:1;" d="M 0.0976562 26.570312 C 0.132812 26.570312 0.164062 26.570312 0.199219 26.570312 C 0.230469 26.859375 0.261719 27.152344 0.296875 27.449219 C 0.394531 27.480469 0.492188 27.515625 0.59375 27.546875 C 0.691406 27.671875 0.785156 27.800781 0.878906 27.933594 C 1.113281 28.214844 1.21875 28.316406 1.585938 28.375 C 1.695312 28.378906 1.804688 28.386719 1.917969 28.390625 C 2.359375 28.433594 2.519531 28.464844 2.820312 28.792969 C 3.015625 29.089844 3.183594 29.398438 3.355469 29.707031 C 3.53125 30.007812 3.742188 30.277344 3.957031 30.550781 C 4 30.605469 4.039062 30.65625 4.082031 30.710938 C 4.648438 31.414062 5.253906 32.074219 5.917969 32.6875 C 6.035156 32.824219 6.035156 32.824219 6.035156 33.019531 C 6.089844 33.039062 6.144531 33.0625 6.199219 33.085938 C 6.492188 33.246094 6.722656 33.449219 6.976562 33.664062 C 8.550781 34.980469 10.425781 36.054688 12.371094 36.730469 C 12.523438 36.785156 12.679688 36.839844 12.835938 36.894531 C 13.238281 37.039062 13.644531 37.175781 14.050781 37.316406 C 14.050781 37.378906 14.050781 37.445312 14.050781 37.511719 C 14.378906 37.574219 14.707031 37.640625 15.042969 37.707031 C 14.617188 38.019531 14.542969 38.035156 14.042969 38.035156 C 13.917969 38.035156 13.792969 38.035156 13.667969 38.035156 C 13.53125 38.035156 13.394531 38.035156 13.257812 38.035156 C 13.113281 38.03125 12.96875 38.035156 12.824219 38.035156 C 12.433594 38.035156 12.039062 38.03125 11.648438 38.03125 C 11.238281 38.027344 10.828125 38.027344 10.421875 38.027344 C 9.644531 38.027344 8.871094 38.023438 8.09375 38.019531 C 7.210938 38.019531 6.328125 38.015625 5.445312 38.015625 C 3.632812 38.011719 1.816406 38.007812 0 38 C -0.00390625 36.554688 -0.00390625 35.105469 -0.00390625 33.660156 C -0.00390625 32.988281 -0.0078125 32.316406 -0.0078125 31.644531 C -0.0078125 30.996094 -0.0078125 30.347656 -0.0078125 29.699219 C -0.0078125 29.453125 -0.0117188 29.203125 -0.0117188 28.957031 C -0.0117188 28.609375 -0.0117188 28.265625 -0.0117188 27.917969 C -0.0117188 27.816406 -0.0117188 27.714844 -0.0117188 27.605469 C -0.0117188 27.511719 -0.0117188 27.417969 -0.0117188 27.320312 C -0.0117188 27.238281 -0.0117188 27.15625 -0.0117188 27.074219 C 0 26.863281 0 26.863281 0.0976562 26.570312 Z M 0.0976562 26.570312 "/>
<path style=" stroke:none;fill-rule:nonzero;fill:rgb(79.607844%,96.862745%,55.686277%);fill-opacity:1;" d="M 22.113281 10.058594 C 23.203125 10.914062 23.839844 11.941406 24.144531 13.285156 C 24.144531 13.867188 24.144531 14.445312 24.144531 15.042969 C 20.652344 15.042969 17.15625 15.042969 13.558594 15.042969 C 13.558594 13.207031 13.886719 11.832031 15.199219 10.472656 C 17.210938 8.632812 19.894531 8.472656 22.113281 10.058594 Z M 22.113281 10.058594 "/>
<path style=" stroke:none;fill-rule:nonzero;fill:rgb(2.352941%,3.529412%,1.568628%);fill-opacity:1;" d="M 16.824219 0.488281 C 18.128906 0.488281 19.433594 0.488281 20.78125 0.488281 C 20.78125 0.554688 20.78125 0.617188 20.78125 0.683594 C 20.917969 0.691406 20.917969 0.691406 21.054688 0.699219 C 21.179688 0.707031 21.300781 0.714844 21.425781 0.71875 C 21.605469 0.730469 21.605469 0.730469 21.785156 0.742188 C 22.191406 0.785156 22.566406 0.871094 22.957031 0.976562 C 23.082031 1.003906 23.203125 1.035156 23.328125 1.0625 C 24.851562 1.425781 26.234375 1.90625 27.609375 2.636719 C 27.671875 2.667969 27.730469 2.703125 27.792969 2.734375 C 29.367188 3.574219 30.820312 4.585938 32.0625 5.859375 C 32.183594 5.980469 32.183594 5.980469 32.304688 6.097656 C 32.386719 6.183594 32.472656 6.265625 32.558594 6.351562 C 32.652344 6.4375 32.652344 6.4375 32.746094 6.523438 C 33.21875 6.96875 33.625 7.4375 34.011719 7.957031 C 34.058594 8.019531 34.105469 8.082031 34.152344 8.144531 C 34.414062 8.503906 34.632812 8.867188 34.832031 9.261719 C 35 9.546875 35.070312 9.648438 35.386719 9.761719 C 35.578125 9.796875 35.769531 9.820312 35.960938 9.839844 C 36.453125 9.890625 36.769531 10.089844 37.085938 10.453125 C 37.566406 11.085938 37.578125 11.527344 37.503906 12.308594 C 37.351562 12.933594 36.976562 13.230469 36.4375 13.566406 C 35.949219 13.8125 35.433594 13.867188 34.902344 13.703125 C 34.429688 13.511719 34.121094 13.332031 33.84375 12.894531 C 33.785156 12.8125 33.730469 12.734375 33.671875 12.648438 C 33.480469 12.128906 33.472656 11.589844 33.546875 11.039062 C 33.699219 10.804688 33.699219 10.804688 33.84375 10.648438 C 33.261719 9.472656 32.496094 8.394531 31.539062 7.488281 C 31.371094 7.328125 31.371094 7.328125 31.171875 7.074219 C 30.296875 6.023438 28.980469 5.191406 27.808594 4.492188 C 27.71875 4.4375 27.632812 4.382812 27.542969 4.328125 C 26.097656 3.449219 24.4375 2.796875 22.761719 2.539062 C 22.761719 2.476562 22.761719 2.410156 22.761719 2.34375 C 22.625 2.335938 22.625 2.335938 22.484375 2.328125 C 22.363281 2.316406 22.242188 2.308594 22.117188 2.300781 C 21.996094 2.292969 21.878906 2.285156 21.753906 2.277344 C 21.507812 2.257812 21.257812 2.230469 21.011719 2.195312 C 20.566406 2.140625 20.125 2.144531 19.675781 2.152344 C 19.503906 2.15625 19.332031 2.15625 19.160156 2.160156 C 18.894531 2.164062 18.625 2.167969 18.359375 2.171875 C 18.097656 2.179688 17.839844 2.179688 17.578125 2.183594 C 17.5 2.1875 17.417969 2.1875 17.335938 2.191406 C 16.976562 2.191406 16.769531 2.183594 16.476562 1.964844 C 16.226562 1.617188 16.28125 1.394531 16.328125 0.976562 C 16.464844 0.78125 16.464844 0.78125 16.625 0.683594 C 16.691406 0.683594 16.753906 0.683594 16.824219 0.683594 C 16.824219 0.621094 16.824219 0.554688 16.824219 0.488281 Z M 16.824219 0.488281 "/>
<path style=" stroke:none;fill-rule:nonzero;fill:rgb(1.960784%,3.137255%,1.568628%);fill-opacity:1;" d="M 12.390625 1.144531 C 12.816406 1.445312 13.128906 1.84375 13.261719 2.34375 C 13.367188 3.054688 13.179688 3.617188 12.765625 4.199219 C 12.210938 4.722656 11.6875 4.8125 10.949219 4.808594 C 10.636719 4.78125 10.457031 4.660156 10.191406 4.492188 C 9.085938 4.835938 8.09375 5.777344 7.253906 6.535156 C 7.078125 6.695312 6.898438 6.84375 6.710938 6.992188 C 6.347656 7.300781 6.046875 7.644531 5.738281 8.011719 C 5.679688 8.082031 5.617188 8.152344 5.554688 8.226562 C 3.933594 10.164062 2.777344 12.375 2.140625 14.808594 C 2.097656 14.96875 2.054688 15.128906 2.007812 15.289062 C 1.554688 16.941406 1.542969 18.53125 1.59375 20.226562 C 1.59375 20.316406 1.597656 20.402344 1.597656 20.492188 C 1.601562 20.660156 1.609375 20.824219 1.617188 20.992188 C 1.628906 21.539062 1.628906 21.539062 1.402344 21.785156 C 1.105469 21.917969 0.914062 21.925781 0.59375 21.882812 C 0.261719 21.671875 0.125 21.570312 0 21.199219 C -0.0117188 20.921875 -0.015625 20.652344 -0.015625 20.378906 C -0.015625 20.296875 -0.015625 20.214844 -0.0195312 20.128906 C -0.0195312 19.957031 -0.0195312 19.785156 -0.0195312 19.613281 C -0.0195312 19.351562 -0.0195312 19.089844 -0.0234375 18.832031 C -0.0234375 17.941406 0 17.089844 0.199219 16.214844 C 0.21875 16.117188 0.242188 16.015625 0.265625 15.914062 C 0.335938 15.601562 0.410156 15.292969 0.488281 14.984375 C 0.511719 14.878906 0.539062 14.777344 0.5625 14.671875 C 0.945312 13.117188 1.5 11.734375 2.277344 10.332031 C 2.367188 10.171875 2.457031 10.007812 2.546875 9.84375 C 2.6875 9.589844 2.824219 9.335938 2.96875 9.085938 C 3.019531 8.996094 3.070312 8.902344 3.121094 8.8125 C 3.191406 8.703125 3.191406 8.703125 3.265625 8.597656 C 3.332031 8.597656 3.394531 8.597656 3.464844 8.597656 C 3.488281 8.527344 3.511719 8.457031 3.535156 8.382812 C 3.769531 7.867188 4.179688 7.460938 4.550781 7.035156 C 4.628906 6.945312 4.703125 6.859375 4.78125 6.769531 C 5.179688 6.3125 5.179688 6.3125 5.34375 6.152344 C 5.410156 6.152344 5.472656 6.152344 5.542969 6.152344 C 5.574219 6.058594 5.605469 5.960938 5.640625 5.859375 C 5.785156 5.714844 5.785156 5.714844 5.976562 5.554688 C 6.046875 5.496094 6.117188 5.4375 6.191406 5.375 C 6.269531 5.308594 6.351562 5.246094 6.433594 5.175781 C 6.519531 5.105469 6.605469 5.035156 6.691406 4.960938 C 8.148438 3.765625 8.148438 3.765625 8.914062 3.445312 C 9.222656 3.257812 9.222656 3.257812 9.257812 2.980469 C 9.269531 2.792969 9.28125 2.601562 9.285156 2.410156 C 9.316406 1.910156 9.519531 1.640625 9.871094 1.292969 C 10.640625 0.769531 11.570312 0.691406 12.390625 1.144531 Z M 12.390625 1.144531 "/>
<path style=" stroke:none;fill-rule:nonzero;fill:rgb(1.960784%,3.137255%,1.176471%);fill-opacity:1;" d="M 2.96875 24.617188 C 3.289062 24.765625 3.515625 24.953125 3.761719 25.203125 C 3.8125 25.246094 3.863281 25.292969 3.917969 25.339844 C 4.296875 25.765625 4.289062 26.25 4.28125 26.792969 C 4.257812 27.046875 4.207031 27.214844 4.101562 27.445312 C 3.945312 27.773438 3.941406 27.8125 4.058594 28.132812 C 4.796875 29.621094 6.226562 31.417969 7.621094 32.335938 C 7.621094 32.398438 7.621094 32.464844 7.621094 32.53125 C 7.675781 32.554688 7.730469 32.582031 7.785156 32.609375 C 8.035156 32.734375 8.277344 32.863281 8.511719 33.019531 C 8.511719 33.082031 8.511719 33.148438 8.511719 33.214844 C 8.5625 33.238281 8.617188 33.265625 8.671875 33.292969 C 8.945312 33.425781 9.210938 33.570312 9.476562 33.714844 C 9.574219 33.765625 9.671875 33.820312 9.769531 33.875 C 9.84375 33.914062 9.917969 33.953125 9.996094 33.996094 C 9.996094 34.058594 9.996094 34.125 9.996094 34.191406 C 10.0625 34.214844 10.125 34.238281 10.195312 34.265625 C 10.484375 34.382812 10.765625 34.515625 11.046875 34.652344 C 11.898438 35.058594 12.761719 35.402344 13.660156 35.691406 C 13.835938 35.746094 14.007812 35.804688 14.175781 35.867188 C 16.046875 36.46875 18.058594 36.480469 20.003906 36.417969 C 20.070312 36.417969 20.140625 36.414062 20.210938 36.414062 C 20.394531 36.410156 20.578125 36.402344 20.761719 36.398438 C 21.148438 36.445312 21.304688 36.554688 21.574219 36.828125 C 21.628906 37.121094 21.628906 37.121094 21.574219 37.414062 C 21.351562 37.691406 21.222656 37.789062 20.878906 37.902344 C 20.605469 37.914062 20.332031 37.917969 20.054688 37.917969 C 19.933594 37.917969 19.933594 37.917969 19.808594 37.917969 C 19.632812 37.921875 19.460938 37.921875 19.285156 37.921875 C 19.023438 37.921875 18.761719 37.921875 18.5 37.925781 C 17.28125 37.929688 16.117188 37.867188 14.941406 37.511719 C 14.75 37.476562 14.5625 37.441406 14.371094 37.410156 C 13.765625 37.308594 13.203125 37.191406 12.640625 36.945312 C 12.429688 36.855469 12.214844 36.769531 12 36.6875 C 9.6875 35.8125 7.109375 34.335938 5.507812 32.425781 C 5.335938 32.226562 5.152344 32.050781 4.960938 31.871094 C 4.464844 31.386719 4.066406 30.839844 3.660156 30.28125 C 3.597656 30.195312 3.53125 30.105469 3.464844 30.015625 C 3.40625 29.933594 3.34375 29.847656 3.285156 29.765625 C 3.226562 29.6875 3.171875 29.605469 3.113281 29.527344 C 2.980469 29.324219 2.898438 29.136719 2.808594 28.914062 C 2.605469 28.597656 2.605469 28.597656 2.289062 28.5625 C 2.058594 28.535156 1.832031 28.511719 1.605469 28.488281 C 1.109375 28.390625 0.871094 28.144531 0.59375 27.742188 C 0.273438 27.203125 0.210938 26.695312 0.296875 26.082031 C 0.480469 25.46875 0.863281 25.082031 1.386719 24.714844 C 1.851562 24.484375 2.464844 24.558594 2.96875 24.617188 Z M 2.96875 24.617188 "/>
<path style=" stroke:none;fill-rule:nonzero;fill:rgb(1.960784%,3.137255%,1.568628%);fill-opacity:1;" d="M 37.015625 16.605469 C 37.363281 16.722656 37.484375 16.804688 37.703125 17.09375 C 37.761719 17.382812 37.761719 17.667969 37.757812 17.960938 C 37.761719 18.046875 37.761719 18.132812 37.761719 18.222656 C 37.761719 18.503906 37.761719 18.78125 37.757812 19.0625 C 37.757812 19.15625 37.757812 19.25 37.757812 19.347656 C 37.742188 21.804688 37.234375 23.960938 36.417969 26.277344 C 36.351562 26.277344 36.285156 26.277344 36.21875 26.277344 C 36.207031 26.363281 36.195312 26.449219 36.1875 26.535156 C 35.808594 28.40625 34.066406 30.496094 32.753906 31.847656 C 32.644531 31.972656 32.535156 32.101562 32.425781 32.230469 C 31.355469 33.433594 30.007812 34.472656 28.597656 35.265625 C 28.535156 35.265625 28.46875 35.265625 28.402344 35.265625 C 28.40625 35.320312 28.410156 35.375 28.414062 35.429688 C 28.441406 36.019531 28.351562 36.4375 28.003906 36.925781 C 27.503906 37.394531 27.121094 37.539062 26.433594 37.542969 C 26.316406 37.542969 26.199219 37.546875 26.078125 37.546875 C 25.605469 37.5 25.28125 37.367188 24.949219 37.027344 C 24.902344 36.960938 24.855469 36.894531 24.808594 36.828125 C 24.757812 36.761719 24.710938 36.695312 24.660156 36.625 C 24.332031 36.101562 24.367188 35.46875 24.441406 34.875 C 24.691406 34.332031 25.113281 33.984375 25.628906 33.703125 C 26.242188 33.5 26.738281 33.570312 27.308594 33.84375 C 27.703125 33.949219 28.023438 33.84375 28.375 33.65625 C 29.15625 33.132812 29.878906 32.570312 30.578125 31.945312 C 30.632812 31.894531 30.6875 31.84375 30.746094 31.792969 C 32.074219 30.585938 33.242188 29.152344 34.042969 27.546875 C 34.140625 27.375 34.234375 27.203125 34.332031 27.03125 C 35.011719 25.820312 35.441406 24.582031 35.738281 23.234375 C 35.792969 23 35.851562 22.765625 35.921875 22.535156 C 36.289062 21.21875 36.234375 19.882812 36.191406 18.53125 C 36.183594 18.285156 36.179688 18.042969 36.175781 17.796875 C 36.175781 17.722656 36.171875 17.648438 36.167969 17.570312 C 36.164062 17.191406 36.183594 17.03125 36.449219 16.753906 C 36.714844 16.605469 36.714844 16.605469 37.015625 16.605469 Z M 37.015625 16.605469 "/>
<path style=" stroke:none;fill-rule:nonzero;fill:rgb(80.000001%,97.647059%,55.686277%);fill-opacity:1;" d="M 19.394531 19.441406 C 19.765625 19.601562 20.011719 19.8125 20.230469 20.148438 C 20.3125 20.542969 20.363281 20.894531 20.285156 21.296875 C 20.152344 21.457031 20.152344 21.457031 19.988281 21.617188 C 19.519531 22.203125 19.621094 22.953125 19.636719 23.664062 C 19.640625 23.878906 19.644531 24.09375 19.644531 24.304688 C 19.644531 24.5 19.644531 24.691406 19.648438 24.882812 C 19.59375 25.203125 19.59375 25.203125 19.359375 25.4375 C 19.070312 25.609375 18.933594 25.652344 18.605469 25.59375 C 18.425781 25.460938 18.425781 25.460938 18.308594 25.300781 C 18.308594 25.234375 18.308594 25.171875 18.308594 25.105469 C 18.242188 25.105469 18.175781 25.105469 18.109375 25.105469 C 18.109375 25.011719 18.109375 24.917969 18.109375 24.820312 C 18.105469 24.464844 18.101562 24.113281 18.09375 23.761719 C 18.09375 23.609375 18.089844 23.457031 18.089844 23.304688 C 18.089844 23.082031 18.085938 22.863281 18.082031 22.644531 C 18.082031 22.578125 18.082031 22.507812 18.082031 22.441406 C 18.066406 21.890625 17.878906 21.679688 17.515625 21.296875 C 17.414062 20.957031 17.429688 20.664062 17.515625 20.320312 C 18.003906 19.554688 18.492188 19.320312 19.394531 19.441406 Z M 19.394531 19.441406 "/>
<path style=" stroke:none;fill-rule:nonzero;fill:rgb(73.725492%,83.92157%,56.470591%);fill-opacity:1;" d="M 14.050781 37.316406 C 15.175781 37.492188 15.175781 37.492188 15.703125 37.617188 C 16.613281 37.820312 17.535156 37.832031 18.460938 37.859375 C 18.589844 37.863281 18.71875 37.867188 18.851562 37.871094 C 19.164062 37.882812 19.476562 37.894531 19.792969 37.902344 C 19.792969 37.933594 19.792969 37.964844 19.792969 38 C 18.09375 38 16.394531 38 14.644531 38 C 14.644531 37.902344 14.644531 37.804688 14.644531 37.707031 C 14.449219 37.640625 14.253906 37.578125 14.050781 37.511719 C 14.050781 37.445312 14.050781 37.382812 14.050781 37.316406 Z M 14.050781 37.316406 "/>
<path style=" stroke:none;fill-rule:nonzero;fill:rgb(67.450982%,78.823531%,51.764709%);fill-opacity:1;" d="M 11.015625 0.769531 C 11.089844 0.769531 11.160156 0.769531 11.238281 0.773438 C 11.417969 0.773438 11.597656 0.777344 11.777344 0.78125 C 11.777344 0.8125 11.777344 0.847656 11.777344 0.878906 C 11.683594 0.890625 11.589844 0.898438 11.492188 0.90625 C 10.425781 1.027344 10.425781 1.027344 9.617188 1.667969 C 9.359375 2.085938 9.378906 2.503906 9.359375 2.980469 C 9.300781 3.222656 9.300781 3.222656 9.101562 3.355469 C 9.035156 3.375 8.972656 3.398438 8.90625 3.417969 C 8.957031 3.273438 8.957031 3.273438 9.003906 3.125 C 9.027344 2.832031 9.042969 2.539062 9.058594 2.246094 C 9.109375 1.921875 9.203125 1.726562 9.402344 1.464844 C 9.464844 1.464844 9.53125 1.464844 9.597656 1.464844 C 9.597656 1.402344 9.597656 1.335938 9.597656 1.269531 C 9.664062 1.269531 9.730469 1.269531 9.796875 1.269531 C 9.765625 1.171875 9.730469 1.078125 9.699219 0.976562 C 10.132812 0.761719 10.539062 0.757812 11.015625 0.769531 Z M 11.015625 0.769531 "/>
<path style=" stroke:none;fill-rule:nonzero;fill:rgb(78.039217%,94.117647%,54.509807%);fill-opacity:1;" d="M 37.503906 11.429688 C 37.539062 11.429688 37.570312 11.429688 37.605469 11.429688 C 37.605469 11.621094 37.605469 11.816406 37.605469 12.015625 C 37.734375 12.046875 37.867188 12.078125 38 12.113281 C 38.007812 12.253906 38.015625 12.394531 38.019531 12.535156 C 38.023438 12.613281 38.027344 12.691406 38.027344 12.769531 C 37.992188 13.039062 37.910156 13.117188 37.703125 13.285156 C 37.703125 13.222656 37.703125 13.15625 37.703125 13.089844 C 37.574219 13.058594 37.441406 13.027344 37.308594 12.992188 C 37.308594 13.058594 37.308594 13.121094 37.308594 13.1875 C 37.175781 13.21875 37.046875 13.253906 36.910156 13.285156 C 36.945312 13.226562 36.980469 13.164062 37.015625 13.101562 C 37.328125 12.527344 37.472656 12.082031 37.503906 11.429688 Z M 37.503906 11.429688 "/>
<path style=" stroke:none;fill-rule:nonzero;fill:rgb(76.078433%,88.235295%,59.607846%);fill-opacity:1;" d="M 18.40625 19.441406 C 18.917969 19.394531 19.351562 19.359375 19.792969 19.652344 C 20.136719 19.941406 20.257812 20.183594 20.3125 20.628906 C 20.332031 21.027344 20.34375 21.222656 20.089844 21.546875 C 20.023438 21.59375 19.957031 21.636719 19.890625 21.6875 C 19.941406 21.472656 19.988281 21.296875 20.089844 21.101562 C 20.0625 20.863281 20.0625 20.863281 20.007812 20.605469 C 19.992188 20.519531 19.972656 20.429688 19.957031 20.339844 C 19.933594 20.269531 19.914062 20.195312 19.890625 20.125 C 19.824219 20.089844 19.761719 20.058594 19.691406 20.027344 C 19.625 19.976562 19.558594 19.925781 19.488281 19.875 C 19.089844 19.679688 18.742188 19.707031 18.308594 19.734375 C 18.339844 19.636719 18.371094 19.539062 18.40625 19.441406 Z M 18.40625 19.441406 "/>
<path style=" stroke:none;fill-rule:nonzero;fill:rgb(82.352942%,95.686275%,63.137257%);fill-opacity:1;" d="M 16.921875 0.195312 C 17.410156 0.203125 17.902344 0.214844 18.390625 0.226562 C 18.558594 0.230469 18.722656 0.234375 18.890625 0.238281 C 19.128906 0.242188 19.371094 0.246094 19.609375 0.253906 C 19.683594 0.253906 19.757812 0.253906 19.835938 0.257812 C 20.363281 0.269531 20.363281 0.269531 20.582031 0.488281 C 19.375 0.488281 18.167969 0.488281 16.921875 0.488281 C 16.921875 0.390625 16.921875 0.296875 16.921875 0.195312 Z M 16.921875 0.195312 "/>
<path style=" stroke:none;fill-rule:nonzero;fill:rgb(74.509805%,87.450981%,56.078434%);fill-opacity:1;" d="M 3.660156 10.84375 C 3.726562 10.875 3.792969 10.90625 3.859375 10.941406 C 3.859375 11.003906 3.859375 11.070312 3.859375 11.136719 C 3.792969 11.136719 3.730469 11.136719 3.660156 11.136719 C 3.628906 11.363281 3.597656 11.585938 3.5625 11.820312 C 3.496094 11.820312 3.433594 11.820312 3.363281 11.820312 C 3.382812 11.898438 3.402344 11.972656 3.421875 12.050781 C 3.464844 12.308594 3.464844 12.308594 3.363281 12.503906 C 3.300781 12.503906 3.234375 12.503906 3.167969 12.503906 C 3.132812 12.632812 3.101562 12.761719 3.066406 12.894531 C 2.96875 12.894531 2.871094 12.894531 2.769531 12.894531 C 2.773438 13.003906 2.777344 13.113281 2.78125 13.222656 C 2.769531 13.578125 2.769531 13.578125 2.574219 13.773438 C 2.421875 13.320312 2.597656 13 2.78125 12.582031 C 2.832031 12.472656 2.832031 12.472656 2.878906 12.359375 C 3.109375 11.835938 3.355469 11.328125 3.660156 10.84375 Z M 3.660156 10.84375 "/>
<path style=" stroke:none;fill-rule:nonzero;fill:rgb(61.960787%,72.941178%,47.450981%);fill-opacity:1;" d="M 18.207031 21.492188 C 18.242188 21.492188 18.273438 21.492188 18.308594 21.492188 C 18.308594 22.683594 18.308594 23.875 18.308594 25.105469 C 18.242188 25.105469 18.175781 25.105469 18.109375 25.105469 C 18.105469 25.007812 18.105469 24.914062 18.101562 24.8125 C 18.09375 24.453125 18.082031 24.097656 18.074219 23.738281 C 18.066406 23.582031 18.0625 23.429688 18.058594 23.273438 C 18.054688 23.050781 18.046875 22.828125 18.042969 22.605469 C 18.039062 22.535156 18.039062 22.46875 18.035156 22.394531 C 18.03125 22.027344 18.03125 22.027344 17.910156 21.6875 C 18.007812 21.6875 18.105469 21.6875 18.207031 21.6875 C 18.207031 21.621094 18.207031 21.558594 18.207031 21.492188 Z M 18.207031 21.492188 "/>
<path style=" stroke:none;fill-rule:nonzero;fill:rgb(81.176472%,94.509804%,61.960787%);fill-opacity:1;" d="M 12.765625 10.941406 C 12.832031 10.941406 12.894531 10.941406 12.964844 10.941406 C 12.921875 11.070312 12.878906 11.203125 12.832031 11.332031 C 12.808594 11.402344 12.785156 11.476562 12.761719 11.550781 C 12.6875 11.761719 12.605469 11.964844 12.519531 12.167969 C 12.320312 12.6875 12.265625 13.222656 12.203125 13.773438 C 12.191406 13.878906 12.175781 13.980469 12.164062 14.085938 C 12.132812 14.339844 12.101562 14.59375 12.074219 14.847656 C 12.039062 14.847656 12.007812 14.847656 11.972656 14.847656 C 11.941406 14.042969 11.964844 13.285156 12.109375 12.492188 C 12.128906 12.386719 12.128906 12.386719 12.148438 12.28125 C 12.21875 11.914062 12.3125 11.578125 12.46875 11.234375 C 12.535156 11.234375 12.597656 11.234375 12.667969 11.234375 C 12.699219 11.136719 12.730469 11.039062 12.765625 10.941406 Z M 12.765625 10.941406 "/>
<path style=" stroke:none;fill-rule:nonzero;fill:rgb(72.941178%,85.490197%,54.509807%);fill-opacity:1;" d="M 36.714844 16.507812 C 37.125 16.5 37.5 16.511719 37.902344 16.605469 C 37.964844 16.898438 38.011719 17.136719 37.957031 17.433594 C 37.875 17.933594 37.863281 18.433594 37.84375 18.9375 C 37.839844 19.042969 37.835938 19.148438 37.832031 19.253906 C 37.820312 19.511719 37.8125 19.769531 37.800781 20.027344 C 37.769531 20.027344 37.738281 20.027344 37.703125 20.027344 C 37.703125 19.9375 37.699219 19.851562 37.699219 19.761719 C 37.691406 19.4375 37.683594 19.113281 37.675781 18.789062 C 37.675781 18.648438 37.671875 18.507812 37.667969 18.371094 C 37.664062 18.167969 37.660156 17.964844 37.65625 17.765625 C 37.652344 17.644531 37.648438 17.523438 37.648438 17.398438 C 37.628906 17.097656 37.628906 17.097656 37.472656 16.914062 C 37.238281 16.753906 36.988281 16.683594 36.714844 16.605469 C 36.714844 16.574219 36.714844 16.542969 36.714844 16.507812 Z M 36.714844 16.507812 "/>
<path style=" stroke:none;fill-rule:nonzero;fill:rgb(71.764708%,83.529413%,53.333336%);fill-opacity:1;" d="M 36.121094 17.582031 C 36.355469 17.933594 36.34375 18.097656 36.34375 18.515625 C 36.34375 18.703125 36.34375 18.703125 36.34375 18.894531 C 36.34375 18.960938 36.34375 19.027344 36.34375 19.09375 C 36.34375 19.292969 36.34375 19.492188 36.34375 19.691406 C 36.34375 19.816406 36.34375 19.941406 36.34375 20.070312 C 36.34375 20.1875 36.34375 20.300781 36.34375 20.421875 C 36.316406 20.710938 36.316406 20.710938 36.121094 21.003906 C 36.027344 20.222656 36.023438 19.472656 36.0625 18.6875 C 36.070312 18.582031 36.074219 18.476562 36.078125 18.363281 C 36.09375 18.105469 36.105469 17.84375 36.121094 17.582031 Z M 36.121094 17.582031 "/>
<path style=" stroke:none;fill-rule:nonzero;fill:rgb(76.47059%,89.019608%,58.431375%);fill-opacity:1;" d="M 6.136719 33.019531 C 6.574219 33.339844 7.007812 33.667969 7.433594 34.007812 C 7.78125 34.285156 8.132812 34.539062 8.511719 34.777344 C 8.414062 34.839844 8.316406 34.90625 8.214844 34.972656 C 8.191406 34.910156 8.167969 34.851562 8.144531 34.785156 C 7.980469 34.523438 7.855469 34.492188 7.558594 34.410156 C 7.476562 34.386719 7.394531 34.363281 7.3125 34.339844 C 7.25 34.320312 7.1875 34.304688 7.125 34.289062 C 7.125 34.222656 7.125 34.160156 7.125 34.09375 C 7.058594 34.09375 6.996094 34.09375 6.925781 34.09375 C 6.867188 34.015625 6.804688 33.9375 6.742188 33.859375 C 6.542969 33.617188 6.421875 33.519531 6.136719 33.410156 C 6.136719 33.28125 6.136719 33.152344 6.136719 33.019531 Z M 6.136719 33.019531 "/>
<path style=" stroke:none;fill-rule:nonzero;fill:rgb(76.862746%,89.803922%,58.039218%);fill-opacity:1;" d="M 25.136719 3.125 C 25.402344 3.230469 25.667969 3.335938 25.933594 3.445312 C 26.007812 3.472656 26.082031 3.503906 26.160156 3.53125 C 26.632812 3.722656 27.070312 3.941406 27.511719 4.199219 C 27.316406 4.296875 27.316406 4.296875 27.113281 4.394531 C 27.035156 4.328125 27.035156 4.328125 26.953125 4.261719 C 26.6875 4.082031 26.433594 3.996094 26.125 3.90625 C 26.125 3.84375 26.125 3.777344 26.125 3.710938 C 25.832031 3.679688 25.539062 3.648438 25.234375 3.613281 C 25.203125 3.453125 25.167969 3.292969 25.136719 3.125 Z M 25.136719 3.125 "/>
<path style=" stroke:none;fill-rule:nonzero;fill:rgb(77.254903%,89.019608%,60.784316%);fill-opacity:1;" d="M 19.496094 22.371094 C 19.527344 22.371094 19.558594 22.371094 19.59375 22.371094 C 19.605469 22.765625 19.613281 23.164062 19.621094 23.558594 C 19.625 23.695312 19.625 23.828125 19.632812 23.964844 C 19.636719 24.15625 19.640625 24.351562 19.640625 24.546875 C 19.644531 24.660156 19.648438 24.777344 19.648438 24.898438 C 19.59375 25.203125 19.59375 25.203125 19.359375 25.4375 C 19.070312 25.613281 18.9375 25.664062 18.605469 25.59375 C 18.425781 25.398438 18.425781 25.398438 18.308594 25.203125 C 18.570312 25.234375 18.828125 25.265625 19.097656 25.300781 C 19.164062 25.203125 19.230469 25.105469 19.296875 25.007812 C 19.363281 25.007812 19.425781 25.007812 19.496094 25.007812 C 19.496094 24.136719 19.496094 23.265625 19.496094 22.371094 Z M 19.496094 22.371094 "/>
<path style=" stroke:none;fill-rule:nonzero;fill:rgb(76.078433%,88.627452%,56.862748%);fill-opacity:1;" d="M 2.671875 24.324219 C 2.671875 24.386719 2.671875 24.453125 2.671875 24.519531 C 2.800781 24.519531 2.933594 24.519531 3.066406 24.519531 C 3.035156 24.582031 3.003906 24.648438 2.96875 24.714844 C 2.832031 24.707031 2.832031 24.707031 2.695312 24.699219 C 1.917969 24.667969 1.390625 24.6875 0.792969 25.203125 C 0.792969 25.074219 0.792969 24.945312 0.792969 24.8125 C 0.855469 24.8125 0.921875 24.8125 0.988281 24.8125 C 0.988281 24.746094 0.988281 24.683594 0.988281 24.617188 C 2.128906 24.28125 2.128906 24.28125 2.671875 24.324219 Z M 2.671875 24.324219 "/>
<path style=" stroke:none;fill-rule:nonzero;fill:rgb(76.862746%,89.019608%,60.392159%);fill-opacity:1;" d="M 33.746094 27.546875 C 33.84375 27.546875 33.941406 27.546875 34.042969 27.546875 C 33.90625 28.292969 33.320312 29.007812 32.753906 29.5 C 32.753906 29.371094 32.753906 29.242188 32.753906 29.109375 C 32.820312 29.078125 32.886719 29.046875 32.953125 29.011719 C 32.972656 28.917969 32.972656 28.917969 32.996094 28.824219 C 33.050781 28.621094 33.050781 28.621094 33.347656 28.425781 C 33.382812 28.328125 33.414062 28.234375 33.449219 28.132812 C 33.511719 28.132812 33.578125 28.132812 33.644531 28.132812 C 33.679688 27.941406 33.710938 27.746094 33.746094 27.546875 Z M 33.746094 27.546875 "/>
<path style=" stroke:none;fill-rule:nonzero;fill:rgb(73.333335%,85.09804%,56.078434%);fill-opacity:1;" d="M 33.746094 10.355469 C 33.808594 10.386719 33.875 10.417969 33.941406 10.453125 C 33.84375 10.648438 33.746094 10.84375 33.644531 11.039062 C 33.632812 11.242188 33.628906 11.445312 33.628906 11.648438 C 33.625 11.757812 33.625 11.867188 33.621094 11.980469 C 33.644531 12.316406 33.722656 12.582031 33.84375 12.894531 C 33.746094 12.863281 33.648438 12.832031 33.546875 12.796875 C 33.277344 12.125 33.28125 11.445312 33.449219 10.746094 C 33.449219 10.648438 33.449219 10.550781 33.449219 10.453125 C 33.546875 10.484375 33.644531 10.515625 33.746094 10.550781 C 33.746094 10.484375 33.746094 10.421875 33.746094 10.355469 Z M 33.746094 10.355469 "/>
<path style=" stroke:none;fill-rule:nonzero;fill:rgb(77.64706%,91.37255%,58.431375%);fill-opacity:1;" d="M 7.519531 4.296875 C 7.082031 4.746094 6.609375 5.15625 6.136719 5.566406 C 6.101562 5.4375 6.070312 5.308594 6.035156 5.175781 C 6.101562 5.175781 6.167969 5.175781 6.234375 5.175781 C 6.234375 5.082031 6.234375 4.984375 6.234375 4.882812 C 6.398438 4.851562 6.5625 4.820312 6.730469 4.785156 C 6.730469 4.625 6.730469 4.464844 6.730469 4.296875 C 7.054688 4.191406 7.195312 4.21875 7.519531 4.296875 Z M 7.519531 4.296875 "/>
<path style=" stroke:none;fill-rule:nonzero;fill:rgb(76.47059%,88.627452%,57.254905%);fill-opacity:1;" d="M 26.917969 2.148438 C 28.152344 2.449219 28.152344 2.449219 28.5 2.734375 C 28.5 2.832031 28.5 2.929688 28.5 3.027344 C 28.566406 3.027344 28.628906 3.027344 28.699219 3.027344 C 28.699219 3.09375 28.699219 3.15625 28.699219 3.222656 C 28.253906 3.09375 27.875 2.917969 27.472656 2.6875 C 27.367188 2.625 27.261719 2.566406 27.15625 2.507812 C 27.078125 2.453125 26.996094 2.398438 26.917969 2.34375 C 26.917969 2.28125 26.917969 2.214844 26.917969 2.148438 Z M 26.917969 2.148438 "/>
<path style=" stroke:none;fill-rule:nonzero;fill:rgb(77.254903%,89.803922%,57.254905%);fill-opacity:1;" d="M 0.496094 15.140625 C 0.472656 15.230469 0.453125 15.320312 0.433594 15.410156 C 0.285156 16.070312 0.15625 16.714844 0.0976562 17.386719 C 0.0664062 17.386719 0.0351562 17.386719 0 17.386719 C -0.0078125 17.050781 -0.015625 16.710938 -0.0195312 16.375 C -0.0195312 16.277344 -0.0234375 16.183594 -0.0273438 16.082031 C -0.0273438 15.992188 -0.0273438 15.898438 -0.0273438 15.804688 C -0.03125 15.71875 -0.03125 15.632812 -0.0351562 15.546875 C -0.0234375 15.476562 -0.0117188 15.410156 0 15.335938 C 0.296875 15.140625 0.296875 15.140625 0.496094 15.140625 Z M 0.496094 15.140625 "/>
<path style=" stroke:none;fill-rule:nonzero;fill:rgb(75.294119%,88.627452%,57.254905%);fill-opacity:1;" d="M 0.394531 25.59375 C 0.394531 25.695312 0.394531 25.796875 0.390625 25.902344 C 0.390625 26.035156 0.390625 26.167969 0.390625 26.300781 C 0.390625 26.367188 0.386719 26.433594 0.386719 26.503906 C 0.386719 26.832031 0.390625 27.132812 0.496094 27.449219 C 0.429688 27.449219 0.363281 27.449219 0.296875 27.449219 C 0.230469 27.257812 0.167969 27.0625 0.0976562 26.863281 C 0.0664062 26.863281 0.0351562 26.863281 0 26.863281 C 0 26.476562 0 26.089844 0 25.691406 C 0.199219 25.59375 0.199219 25.59375 0.394531 25.59375 Z M 0.394531 25.59375 "/>
<path style=" stroke:none;fill-rule:nonzero;fill:rgb(67.058825%,78.823531%,51.372552%);fill-opacity:1;" d="M 16.230469 1.074219 C 16.261719 1.074219 16.292969 1.074219 16.328125 1.074219 C 16.34375 1.179688 16.355469 1.289062 16.371094 1.398438 C 16.414062 1.75 16.414062 1.75 16.527344 2.050781 C 17.015625 2.050781 17.503906 2.050781 18.011719 2.050781 C 18.011719 2.082031 18.011719 2.117188 18.011719 2.148438 C 17.242188 2.347656 16.765625 2.359375 16.03125 2.050781 C 16.097656 1.730469 16.160156 1.40625 16.230469 1.074219 Z M 16.230469 1.074219 "/>
<path style=" stroke:none;fill-rule:nonzero;fill:rgb(77.64706%,92.54902%,56.078434%);fill-opacity:1;" d="M 5.046875 5.566406 C 5.175781 5.566406 5.308594 5.566406 5.441406 5.566406 C 5.523438 5.832031 5.523438 5.832031 5.542969 6.152344 C 5.300781 6.445312 5.066406 6.628906 4.75 6.839844 C 4.75 6.742188 4.75 6.644531 4.75 6.546875 C 4.816406 6.546875 4.878906 6.546875 4.949219 6.546875 C 4.925781 6.421875 4.90625 6.296875 4.886719 6.167969 C 4.851562 5.953125 4.851562 5.953125 4.847656 5.761719 C 4.914062 5.699219 4.980469 5.632812 5.046875 5.566406 Z M 5.046875 5.566406 "/>
<path style=" stroke:none;fill-rule:nonzero;fill:rgb(9.803922%,15.686275%,4.705882%);fill-opacity:1;" d="M 25.234375 33.898438 C 25.300781 33.898438 25.363281 33.898438 25.433594 33.898438 C 25.300781 34.289062 25.128906 34.488281 24.839844 34.777344 C 24.761719 34.984375 24.761719 34.984375 24.738281 35.167969 C 24.707031 35.167969 24.675781 35.167969 24.640625 35.167969 C 24.609375 35.488281 24.574219 35.8125 24.542969 36.144531 C 24.507812 36.144531 24.476562 36.144531 24.441406 36.144531 C 24.339844 34.917969 24.339844 34.917969 24.726562 34.417969 C 24.828125 34.304688 24.929688 34.195312 25.035156 34.09375 C 25.101562 34.027344 25.167969 33.964844 25.234375 33.898438 Z M 25.234375 33.898438 "/>
<path style=" stroke:none;fill-rule:nonzero;fill:rgb(76.862746%,90.196079%,57.254905%);fill-opacity:1;" d="M 25.628906 33.605469 C 25.628906 33.667969 25.628906 33.734375 25.628906 33.800781 C 25.496094 33.882812 25.496094 33.882812 25.359375 33.96875 C 24.996094 34.21875 24.859375 34.410156 24.640625 34.777344 C 24.441406 34.484375 24.441406 34.484375 24.457031 34.285156 C 24.566406 34.035156 24.6875 33.960938 24.925781 33.824219 C 24.996094 33.78125 25.0625 33.742188 25.132812 33.695312 C 25.332031 33.605469 25.332031 33.605469 25.628906 33.605469 Z M 25.628906 33.605469 "/>
<path style=" stroke:none;fill-rule:nonzero;fill:rgb(74.509805%,86.274511%,56.078434%);fill-opacity:1;" d="M 4.355469 31.160156 C 4.816406 31.617188 5.277344 32.074219 5.738281 32.53125 C 5.675781 32.59375 5.609375 32.660156 5.542969 32.726562 C 5.503906 32.664062 5.464844 32.605469 5.425781 32.542969 C 5.257812 32.316406 5.257812 32.316406 4.984375 32.238281 C 4.90625 32.203125 4.828125 32.171875 4.75 32.140625 C 4.6875 31.9375 4.6875 31.9375 4.652344 31.75 C 4.554688 31.714844 4.457031 31.683594 4.355469 31.648438 C 4.355469 31.488281 4.355469 31.328125 4.355469 31.160156 Z M 4.355469 31.160156 "/>
<path style=" stroke:none;fill-rule:nonzero;fill:rgb(76.078433%,89.019608%,57.254905%);fill-opacity:1;" d="M 31.667969 32.824219 C 31.796875 32.886719 31.929688 32.953125 32.0625 33.019531 C 31.605469 33.410156 31.605469 33.410156 31.269531 33.410156 C 31.238281 33.503906 31.207031 33.601562 31.171875 33.703125 C 31.074219 33.765625 30.976562 33.832031 30.875 33.898438 C 30.777344 33.863281 30.679688 33.832031 30.578125 33.800781 C 30.683594 33.707031 30.683594 33.707031 30.792969 33.609375 C 30.925781 33.488281 30.925781 33.488281 31.066406 33.367188 C 31.203125 33.246094 31.203125 33.246094 31.339844 33.121094 C 31.507812 32.976562 31.507812 32.976562 31.667969 32.824219 Z M 31.667969 32.824219 "/>
<path style=" stroke:none;fill-rule:nonzero;fill:rgb(69.803923%,81.176472%,52.941179%);fill-opacity:1;" d="M 36.8125 24.714844 C 36.914062 25.019531 36.910156 25.203125 36.8125 25.507812 C 36.789062 25.582031 36.769531 25.652344 36.746094 25.730469 C 36.71875 25.804688 36.695312 25.882812 36.671875 25.960938 C 36.644531 26.039062 36.621094 26.113281 36.597656 26.195312 C 36.539062 26.386719 36.476562 26.574219 36.417969 26.765625 C 36.320312 26.765625 36.222656 26.765625 36.121094 26.765625 C 36.152344 26.605469 36.183594 26.445312 36.21875 26.277344 C 36.285156 26.277344 36.347656 26.277344 36.417969 26.277344 C 36.429688 26.214844 36.441406 26.148438 36.453125 26.085938 C 36.542969 25.613281 36.644531 25.164062 36.8125 24.714844 Z M 36.8125 24.714844 "/>
<path style=" stroke:none;fill-rule:nonzero;fill:rgb(71.764708%,83.92157%,54.901963%);fill-opacity:1;" d="M 20.582031 2.148438 C 20.835938 2.164062 21.085938 2.175781 21.335938 2.191406 C 21.445312 2.199219 21.445312 2.199219 21.550781 2.203125 C 21.960938 2.226562 22.355469 2.269531 22.761719 2.34375 C 22.761719 2.375 22.761719 2.410156 22.761719 2.441406 C 22.246094 2.535156 21.800781 2.527344 21.28125 2.449219 C 21.214844 2.4375 21.148438 2.429688 21.078125 2.417969 C 20.914062 2.394531 20.746094 2.371094 20.582031 2.34375 C 20.582031 2.28125 20.582031 2.214844 20.582031 2.148438 Z M 20.582031 2.148438 "/>
<path style=" stroke:none;fill-rule:nonzero;fill:rgb(78.431374%,90.980393%,59.607846%);fill-opacity:1;" d="M 4.949219 29.011719 C 5.242188 29.253906 5.269531 29.433594 5.34375 29.792969 C 5.488281 29.96875 5.488281 29.96875 5.640625 30.085938 C 5.574219 30.152344 5.511719 30.214844 5.441406 30.28125 C 5.179688 29.929688 4.921875 29.574219 4.652344 29.207031 C 4.75 29.144531 4.847656 29.078125 4.949219 29.011719 Z M 4.949219 29.011719 "/>
<path style=" stroke:none;fill-rule:nonzero;fill:rgb(74.901962%,87.843138%,56.078434%);fill-opacity:1;" d="M 22.066406 10.160156 C 22.410156 10.300781 22.597656 10.480469 22.835938 10.757812 C 22.894531 10.828125 22.957031 10.898438 23.019531 10.972656 C 23.085938 11.054688 23.085938 11.054688 23.15625 11.136719 C 23.058594 11.28125 23.058594 11.28125 22.957031 11.429688 C 22.761719 11.136719 22.761719 11.136719 22.761719 10.84375 C 22.566406 10.777344 22.367188 10.714844 22.167969 10.648438 C 22.132812 10.488281 22.101562 10.324219 22.066406 10.160156 Z M 22.066406 10.160156 "/>
<path style=" stroke:none;fill-rule:nonzero;fill:rgb(81.568629%,95.686275%,62.352943%);fill-opacity:1;" d="M 11.972656 0.585938 C 12.234375 0.78125 12.234375 0.78125 12.371094 0.976562 C 12.285156 0.960938 12.203125 0.945312 12.117188 0.929688 C 11.769531 0.878906 11.445312 0.871094 11.09375 0.875 C 10.980469 0.875 10.867188 0.875 10.75 0.875 C 10.664062 0.875 10.578125 0.878906 10.488281 0.878906 C 10.589844 0.683594 10.589844 0.683594 10.761719 0.625 C 11.167969 0.554688 11.566406 0.535156 11.972656 0.585938 Z M 11.972656 0.585938 "/>
<path style=" stroke:none;fill-rule:nonzero;fill:rgb(75.686276%,88.627452%,57.254905%);fill-opacity:1;" d="M 12.46875 36.828125 C 12.558594 36.859375 12.558594 36.859375 12.648438 36.886719 C 12.769531 36.929688 12.769531 36.929688 12.890625 36.96875 C 12.96875 36.996094 13.046875 37.019531 13.125 37.046875 C 13.335938 37.113281 13.542969 37.167969 13.753906 37.21875 C 13.753906 37.28125 13.753906 37.347656 13.753906 37.414062 C 13.394531 37.382812 13.035156 37.347656 12.667969 37.316406 C 12.601562 37.15625 12.535156 36.992188 12.46875 36.828125 Z M 12.46875 36.828125 "/>
<path style=" stroke:none;fill-rule:nonzero;fill:rgb(76.078433%,88.235295%,57.254905%);fill-opacity:1;" d="M 2.375 13.675781 C 2.40625 13.675781 2.441406 13.675781 2.472656 13.675781 C 2.414062 15.027344 2.414062 15.027344 2.078125 15.53125 C 2.046875 15.53125 2.011719 15.53125 1.980469 15.53125 C 2.03125 14.878906 2.164062 14.296875 2.375 13.675781 Z M 2.375 13.675781 "/>
<path style=" stroke:none;fill-rule:nonzero;fill:rgb(9.411765%,14.901961%,5.490196%);fill-opacity:1;" d="M 32.558594 29.792969 C 32.589844 29.792969 32.621094 29.792969 32.65625 29.792969 C 32.679688 30.015625 32.679688 30.015625 32.65625 30.28125 C 32.402344 30.589844 32.082031 30.820312 31.765625 31.0625 C 31.699219 31.03125 31.636719 31 31.566406 30.964844 C 31.621094 30.90625 31.675781 30.847656 31.734375 30.785156 C 31.804688 30.707031 31.878906 30.625 31.949219 30.546875 C 32.023438 30.46875 32.09375 30.390625 32.167969 30.308594 C 32.371094 30.082031 32.371094 30.082031 32.558594 29.792969 Z M 32.558594 29.792969 "/>
<path style=" stroke:none;fill-rule:nonzero;fill:rgb(80.392158%,93.725491%,60.392159%);fill-opacity:1;" d="M 11.972656 34.972656 C 12.308594 34.960938 12.308594 34.960938 12.667969 34.972656 C 12.730469 35.035156 12.796875 35.101562 12.863281 35.167969 C 13.070312 35.230469 13.070312 35.230469 13.261719 35.265625 C 13.261719 35.328125 13.261719 35.394531 13.261719 35.460938 C 13.359375 35.492188 13.457031 35.523438 13.558594 35.558594 C 12.941406 35.515625 12.507812 35.371094 11.972656 35.070312 C 11.972656 35.039062 11.972656 35.003906 11.972656 34.972656 Z M 11.972656 34.972656 "/>
<path style=" stroke:none;fill-rule:nonzero;fill:rgb(76.078433%,90.196079%,56.470591%);fill-opacity:1;" d="M 7.621094 31.453125 C 7.683594 31.488281 7.75 31.519531 7.816406 31.550781 C 7.71875 31.683594 7.621094 31.8125 7.519531 31.945312 C 7.617188 32.136719 7.714844 32.332031 7.816406 32.53125 C 7.621094 32.53125 7.621094 32.53125 7.367188 32.304688 C 7.125 32.042969 7.125 32.042969 7.027344 31.75 C 7.125 31.75 7.222656 31.75 7.324219 31.75 C 7.355469 31.683594 7.386719 31.617188 7.421875 31.550781 C 7.488281 31.585938 7.550781 31.617188 7.621094 31.648438 C 7.621094 31.585938 7.621094 31.519531 7.621094 31.453125 Z M 7.621094 31.453125 "/>
<path style=" stroke:none;fill-rule:nonzero;fill:rgb(81.176472%,96.078432%,60.784316%);fill-opacity:1;" d="M 32.558594 32.140625 C 32.65625 32.171875 32.753906 32.203125 32.855469 32.238281 C 32.757812 32.382812 32.757812 32.382812 32.65625 32.53125 C 32.589844 32.53125 32.527344 32.53125 32.457031 32.53125 C 32.359375 32.722656 32.261719 32.917969 32.160156 33.117188 C 32.097656 33.082031 32.03125 33.050781 31.964844 33.019531 C 31.964844 32.628906 31.964844 32.628906 32.242188 32.351562 C 32.347656 32.28125 32.449219 32.210938 32.558594 32.140625 Z M 32.558594 32.140625 "/>
<path style=" stroke:none;fill-rule:nonzero;fill:rgb(72.941178%,85.490197%,55.29412%);fill-opacity:1;" d="M 23.652344 12.015625 C 23.90625 12.394531 24.070312 12.710938 24.007812 13.175781 C 23.988281 13.242188 23.96875 13.3125 23.949219 13.382812 C 23.75 13.285156 23.75 13.285156 23.6875 13.113281 C 23.648438 12.878906 23.640625 12.664062 23.644531 12.429688 C 23.644531 12.351562 23.648438 12.273438 23.648438 12.195312 C 23.648438 12.136719 23.648438 12.074219 23.652344 12.015625 Z M 23.652344 12.015625 "/>
<path style=" stroke:none;fill-rule:nonzero;fill:rgb(78.431374%,91.764706%,58.431375%);fill-opacity:1;" d="M 25.433594 11.820312 C 25.5625 11.949219 25.695312 12.078125 25.828125 12.210938 C 25.796875 12.273438 25.761719 12.339844 25.730469 12.40625 C 25.707031 12.554688 25.6875 12.707031 25.671875 12.859375 C 25.664062 12.9375 25.65625 13.019531 25.648438 13.101562 C 25.640625 13.160156 25.636719 13.222656 25.628906 13.285156 C 25.597656 13.285156 25.566406 13.285156 25.53125 13.285156 C 25.496094 13.078125 25.460938 12.871094 25.425781 12.664062 C 25.40625 12.546875 25.386719 12.429688 25.367188 12.3125 C 25.332031 12.015625 25.332031 12.015625 25.433594 11.820312 Z M 25.433594 11.820312 "/>
<path style=" stroke:none;fill-rule:nonzero;fill:rgb(78.431374%,91.37255%,58.431375%);fill-opacity:1;" d="M 12.765625 10.941406 C 12.832031 10.941406 12.894531 10.941406 12.964844 10.941406 C 12.917969 11.082031 12.875 11.222656 12.828125 11.363281 C 12.800781 11.441406 12.777344 11.519531 12.75 11.597656 C 12.667969 11.820312 12.667969 11.820312 12.46875 12.113281 C 12.402344 12.082031 12.339844 12.046875 12.269531 12.015625 C 12.324219 11.746094 12.378906 11.496094 12.46875 11.234375 C 12.535156 11.234375 12.597656 11.234375 12.667969 11.234375 C 12.699219 11.136719 12.730469 11.039062 12.765625 10.941406 Z M 12.765625 10.941406 "/>
<path style=" stroke:none;fill-rule:nonzero;fill:rgb(76.862746%,89.803922%,58.431375%);fill-opacity:1;" d="M 30.875 4.6875 C 31.3125 4.808594 31.566406 4.933594 31.863281 5.273438 C 31.832031 5.371094 31.800781 5.46875 31.765625 5.566406 C 31.652344 5.476562 31.542969 5.386719 31.429688 5.292969 C 31.371094 5.242188 31.308594 5.191406 31.242188 5.140625 C 31.074219 4.980469 31.074219 4.980469 30.875 4.6875 Z M 30.875 4.6875 "/>
<path style=" stroke:none;fill-rule:nonzero;fill:rgb(74.509805%,86.274511%,57.647061%);fill-opacity:1;" d="M 36.613281 13.382812 C 36.648438 13.511719 36.679688 13.640625 36.714844 13.773438 C 36.386719 13.878906 36.144531 13.882812 35.804688 13.878906 C 35.644531 13.875 35.644531 13.875 35.476562 13.875 C 35.394531 13.875 35.3125 13.871094 35.230469 13.871094 C 35.230469 13.839844 35.230469 13.808594 35.230469 13.773438 C 35.3125 13.753906 35.394531 13.734375 35.480469 13.714844 C 35.589844 13.6875 35.699219 13.660156 35.808594 13.632812 C 35.917969 13.605469 36.027344 13.582031 36.136719 13.554688 C 36.410156 13.492188 36.410156 13.492188 36.613281 13.382812 Z M 36.613281 13.382812 "/>
<path style=" stroke:none;fill-rule:nonzero;fill:rgb(63.137257%,74.117649%,47.843137%);fill-opacity:1;" d="M 14.050781 37.316406 C 14.242188 37.34375 14.429688 37.371094 14.621094 37.402344 C 14.78125 37.425781 14.78125 37.425781 14.941406 37.449219 C 15.207031 37.503906 15.402344 37.574219 15.636719 37.707031 C 15.066406 37.726562 14.585938 37.734375 14.050781 37.511719 C 14.050781 37.445312 14.050781 37.382812 14.050781 37.316406 Z M 14.050781 37.316406 "/>
<path style=" stroke:none;fill-rule:nonzero;fill:rgb(72.156864%,83.92157%,54.509807%);fill-opacity:1;" d="M 37.503906 21.785156 C 37.703125 21.980469 37.703125 21.980469 37.703125 22.226562 C 37.695312 22.324219 37.683594 22.417969 37.671875 22.515625 C 37.664062 22.613281 37.652344 22.707031 37.640625 22.808594 C 37.605469 23.054688 37.605469 23.054688 37.503906 23.25 C 37.441406 23.25 37.375 23.25 37.308594 23.25 C 37.367188 22.761719 37.433594 22.273438 37.503906 21.785156 Z M 37.503906 21.785156 "/>
<path style=" stroke:none;fill-rule:nonzero;fill:rgb(72.156864%,84.313726%,55.29412%);fill-opacity:1;" d="M 11.378906 15.433594 C 11.476562 15.464844 11.574219 15.5 11.675781 15.53125 C 11.566406 15.660156 11.453125 15.785156 11.34375 15.910156 C 11.28125 15.980469 11.21875 16.050781 11.15625 16.125 C 11.035156 16.253906 10.914062 16.382812 10.785156 16.507812 C 10.785156 16.316406 10.785156 16.121094 10.785156 15.921875 C 10.882812 15.890625 10.980469 15.859375 11.082031 15.824219 C 11.082031 15.761719 11.082031 15.695312 11.082031 15.628906 C 11.179688 15.628906 11.277344 15.628906 11.378906 15.628906 C 11.378906 15.566406 11.378906 15.5 11.378906 15.433594 Z M 11.378906 15.433594 "/>
<path style=" stroke:none;fill-rule:nonzero;fill:rgb(75.686276%,87.843138%,57.254905%);fill-opacity:1;" d="M 32.753906 8.890625 C 33.121094 9.21875 33.347656 9.515625 33.546875 9.964844 C 33.328125 9.925781 33.171875 9.878906 32.984375 9.757812 C 32.792969 9.484375 32.785156 9.214844 32.753906 8.890625 Z M 32.753906 8.890625 "/>
<path style=" stroke:none;fill-rule:nonzero;fill:rgb(9.019608%,15.294118%,5.882353%);fill-opacity:1;" d="M 6.433594 33.214844 C 6.675781 33.261719 6.675781 33.261719 6.925781 33.3125 C 6.925781 33.375 6.925781 33.441406 6.925781 33.507812 C 7.089844 33.539062 7.253906 33.570312 7.421875 33.605469 C 7.453125 33.765625 7.488281 33.925781 7.519531 34.09375 C 7.117188 33.871094 6.777344 33.613281 6.433594 33.3125 C 6.433594 33.277344 6.433594 33.246094 6.433594 33.214844 Z M 6.433594 33.214844 "/>
<path style=" stroke:none;fill-rule:nonzero;fill:rgb(76.47059%,88.627452%,57.254905%);fill-opacity:1;" d="M 27.3125 26.570312 C 27.34375 26.570312 27.378906 26.570312 27.410156 26.570312 C 27.410156 27.152344 27.410156 27.730469 27.410156 28.328125 C 27.28125 28.296875 27.148438 28.265625 27.015625 28.230469 C 27.046875 28.15625 27.078125 28.082031 27.109375 28.003906 C 27.246094 27.53125 27.277344 27.0625 27.3125 26.570312 Z M 27.3125 26.570312 "/>
<path style=" stroke:none;fill-rule:nonzero;fill:rgb(80.392158%,93.725491%,61.56863%);fill-opacity:1;" d="M 17.613281 20.417969 C 17.679688 20.417969 17.746094 20.417969 17.8125 20.417969 C 17.820312 20.53125 17.820312 20.53125 17.828125 20.648438 C 17.835938 20.746094 17.84375 20.847656 17.851562 20.949219 C 17.855469 21.046875 17.863281 21.144531 17.871094 21.246094 C 17.882812 21.328125 17.898438 21.40625 17.910156 21.492188 C 17.976562 21.523438 18.042969 21.554688 18.109375 21.589844 C 18.011719 21.621094 17.914062 21.652344 17.8125 21.6875 C 17.59375 21.363281 17.59375 21.261719 17.601562 20.886719 C 17.605469 20.796875 17.605469 20.710938 17.609375 20.621094 C 17.609375 20.550781 17.613281 20.484375 17.613281 20.417969 Z M 17.613281 20.417969 "/>
<path style=" stroke:none;fill-rule:nonzero;fill:rgb(77.254903%,90.196079%,57.647061%);fill-opacity:1;" d="M 26.917969 16.3125 C 27.160156 16.410156 27.160156 16.410156 27.410156 16.507812 C 27.445312 16.734375 27.476562 16.960938 27.511719 17.191406 C 27.414062 17.226562 27.316406 17.257812 27.214844 17.289062 C 27.117188 16.96875 27.019531 16.644531 26.917969 16.3125 Z M 26.917969 16.3125 "/>
<path style=" stroke:none;fill-rule:nonzero;fill:rgb(80.000001%,92.941177%,60.784316%);fill-opacity:1;" d="M 36.019531 9.671875 C 36.351562 9.726562 36.617188 9.804688 36.910156 9.964844 C 36.976562 9.996094 37.042969 10.027344 37.109375 10.0625 C 37.109375 10.160156 37.109375 10.253906 37.109375 10.355469 C 37.175781 10.386719 37.238281 10.417969 37.308594 10.453125 C 36.957031 10.453125 36.914062 10.398438 36.664062 10.171875 C 36.453125 9.984375 36.261719 9.828125 36.019531 9.671875 Z M 36.019531 9.671875 "/>
<path style=" stroke:none;fill-rule:nonzero;fill:rgb(7.058824%,12.941177%,3.529412%);fill-opacity:1;" d="M 15.140625 36.144531 C 15.875 36.242188 15.875 36.242188 16.625 36.339844 C 16.625 36.371094 16.625 36.402344 16.625 36.4375 C 16.105469 36.511719 15.65625 36.554688 15.140625 36.4375 C 15.140625 36.339844 15.140625 36.242188 15.140625 36.144531 Z M 15.140625 36.144531 "/>
<path style=" stroke:none;fill-rule:nonzero;fill:rgb(7.843138%,12.156863%,3.137255%);fill-opacity:1;" d="M 1.089844 24.910156 C 1.121094 25.039062 1.152344 25.167969 1.1875 25.300781 C 1.058594 25.332031 0.925781 25.367188 0.792969 25.398438 C 0.78125 25.457031 0.769531 25.519531 0.761719 25.582031 C 0.691406 25.789062 0.691406 25.789062 0.394531 25.984375 C 0.523438 25.496094 0.710938 25.246094 1.089844 24.910156 Z M 1.089844 24.910156 "/>
<path style=" stroke:none;fill-rule:nonzero;fill:rgb(8.235294%,13.725491%,3.921569%);fill-opacity:1;" d="M 17.417969 20.125 C 17.613281 20.320312 17.613281 20.320312 17.625 20.535156 C 17.617188 20.617188 17.613281 20.703125 17.609375 20.789062 C 17.597656 21.207031 17.640625 21.449219 17.910156 21.785156 C 17.71875 21.753906 17.71875 21.753906 17.515625 21.6875 C 17.402344 21.351562 17.40625 21.089844 17.410156 20.738281 C 17.410156 20.625 17.414062 20.507812 17.414062 20.390625 C 17.414062 20.300781 17.414062 20.214844 17.417969 20.125 Z M 17.417969 20.125 "/>
<path style=" stroke:none;fill-rule:nonzero;fill:rgb(69.803923%,82.352942%,52.941179%);fill-opacity:1;" d="M 11.777344 0.878906 C 12.511719 0.863281 12.511719 0.863281 12.863281 0.976562 C 12.863281 1.171875 12.863281 1.363281 12.863281 1.5625 C 12.738281 1.484375 12.613281 1.410156 12.488281 1.332031 C 12.417969 1.289062 12.347656 1.246094 12.273438 1.199219 C 12.105469 1.097656 11.941406 0.988281 11.777344 0.878906 Z M 11.777344 0.878906 "/>
<path style=" stroke:none;fill-rule:nonzero;fill:rgb(75.294119%,87.450981%,58.039218%);fill-opacity:1;" d="M 21.277344 36.535156 C 21.472656 36.582031 21.472656 36.582031 21.671875 36.632812 C 21.816406 37.074219 21.699219 37.367188 21.574219 37.804688 C 21.441406 37.773438 21.3125 37.738281 21.175781 37.707031 C 21.226562 37.671875 21.273438 37.632812 21.324219 37.597656 C 21.539062 37.335938 21.507812 37.152344 21.472656 36.828125 C 21.410156 36.730469 21.34375 36.632812 21.277344 36.535156 Z M 21.277344 36.535156 "/>
<path style=" stroke:none;fill-rule:nonzero;fill:rgb(65.882355%,76.862746%,50.588238%);fill-opacity:1;" d="M 1.484375 19.539062 C 1.515625 19.539062 1.550781 19.539062 1.582031 19.539062 C 1.605469 19.730469 1.628906 19.925781 1.652344 20.121094 C 1.679688 20.335938 1.679688 20.335938 1.78125 20.613281 C 1.765625 20.875 1.722656 21.132812 1.683594 21.394531 C 1.648438 21.394531 1.617188 21.394531 1.582031 21.394531 C 1.46875 20.773438 1.476562 20.164062 1.484375 19.539062 Z M 1.484375 19.539062 "/>
<path style=" stroke:none;fill-rule:nonzero;fill:rgb(76.47059%,89.019608%,58.823532%);fill-opacity:1;" d="M 15.339844 8.597656 C 14.898438 8.933594 14.898438 8.933594 14.449219 9.28125 C 14.382812 9.246094 14.316406 9.214844 14.25 9.183594 C 14.25 9.117188 14.25 9.054688 14.25 8.988281 C 14.347656 8.988281 14.445312 8.988281 14.546875 8.988281 C 14.578125 8.890625 14.613281 8.792969 14.644531 8.695312 C 14.9375 8.503906 14.996094 8.484375 15.339844 8.597656 Z M 15.339844 8.597656 "/>
<path style=" stroke:none;fill-rule:nonzero;fill:rgb(12.54902%,18.039216%,7.843138%);fill-opacity:1;" d="M 5.640625 5.859375 C 5.707031 5.894531 5.769531 5.925781 5.839844 5.957031 C 5.578125 6.28125 5.316406 6.605469 5.046875 6.9375 C 4.980469 6.871094 4.917969 6.808594 4.847656 6.742188 C 5.007812 6.539062 5.175781 6.34375 5.34375 6.152344 C 5.410156 6.152344 5.472656 6.152344 5.542969 6.152344 C 5.574219 6.058594 5.605469 5.960938 5.640625 5.859375 Z M 5.640625 5.859375 "/>
<path style=" stroke:none;fill-rule:nonzero;fill:rgb(74.901962%,85.882354%,58.039218%);fill-opacity:1;" d="M 2.671875 28.816406 C 2.910156 29.03125 3.046875 29.234375 3.183594 29.519531 C 3.21875 29.589844 3.253906 29.660156 3.289062 29.730469 C 3.3125 29.785156 3.339844 29.835938 3.363281 29.890625 C 3.300781 29.957031 3.234375 30.019531 3.167969 30.085938 C 2.871094 29.539062 2.871094 29.539062 2.871094 29.207031 C 2.804688 29.207031 2.738281 29.207031 2.671875 29.207031 C 2.671875 29.078125 2.671875 28.949219 2.671875 28.816406 Z M 2.671875 28.816406 "/>
<path style=" stroke:none;fill-rule:nonzero;fill:rgb(72.941178%,85.882354%,55.29412%);fill-opacity:1;" d="M 35.328125 24.03125 C 35.394531 24.0625 35.457031 24.09375 35.527344 24.128906 C 35.453125 24.777344 35.453125 24.777344 35.230469 25.105469 C 35.105469 24.6875 35.167969 24.433594 35.328125 24.03125 Z M 35.328125 24.03125 "/>
<path style=" stroke:none;fill-rule:nonzero;fill:rgb(81.568629%,96.078432%,60.392159%);fill-opacity:1;" d="M 1.582031 21.492188 C 1.617188 21.585938 1.648438 21.683594 1.683594 21.785156 C 1.539062 22.046875 1.539062 22.046875 1.386719 22.273438 C 1.144531 22.234375 1.144531 22.234375 0.890625 22.175781 C 0.859375 22.109375 0.824219 22.046875 0.792969 21.980469 C 0.90625 21.96875 0.90625 21.96875 1.019531 21.953125 C 1.339844 21.867188 1.414062 21.761719 1.582031 21.492188 Z M 1.582031 21.492188 "/>
<path style=" stroke:none;fill-rule:nonzero;fill:rgb(71.764708%,82.352942%,55.29412%);fill-opacity:1;" d="M 18.40625 19.441406 C 18.734375 19.441406 19.058594 19.441406 19.394531 19.441406 C 19.394531 19.535156 19.394531 19.632812 19.394531 19.734375 C 19.035156 19.734375 18.675781 19.734375 18.308594 19.734375 C 18.339844 19.636719 18.371094 19.539062 18.40625 19.441406 Z M 18.40625 19.441406 "/>
<path style=" stroke:none;fill-rule:nonzero;fill:rgb(9.411765%,15.686275%,5.490196%);fill-opacity:1;" d="M 15.140625 8.597656 C 15.207031 8.628906 15.269531 8.660156 15.339844 8.695312 C 15.054688 9.082031 14.761719 9.324219 14.347656 9.574219 C 14.285156 9.542969 14.21875 9.507812 14.152344 9.476562 C 14.476562 9.183594 14.804688 8.894531 15.140625 8.597656 Z M 15.140625 8.597656 "/>
<path style=" stroke:none;fill-rule:nonzero;fill:rgb(75.294119%,88.627452%,57.647061%);fill-opacity:1;" d="M 17.910156 7.425781 C 17.910156 7.488281 17.910156 7.554688 17.910156 7.621094 C 17.671875 7.738281 17.519531 7.726562 17.257812 7.722656 C 17.132812 7.722656 17.132812 7.722656 17.011719 7.71875 C 16.917969 7.71875 16.917969 7.71875 16.824219 7.71875 C 16.855469 7.652344 16.886719 7.589844 16.921875 7.523438 C 17.253906 7.429688 17.566406 7.414062 17.910156 7.425781 Z M 17.910156 7.425781 "/>
<path style=" stroke:none;fill-rule:nonzero;fill:rgb(76.862746%,89.411765%,58.431375%);fill-opacity:1;" d="M 23.15625 2.539062 C 23.300781 2.566406 23.445312 2.597656 23.589844 2.625 C 23.667969 2.640625 23.75 2.65625 23.832031 2.671875 C 24.046875 2.734375 24.046875 2.734375 24.246094 2.929688 C 23.507812 2.945312 23.507812 2.945312 23.15625 2.832031 C 23.15625 2.734375 23.15625 2.640625 23.15625 2.539062 Z M 23.15625 2.539062 "/>
<path style=" stroke:none;fill-rule:nonzero;fill:rgb(76.47059%,89.411765%,57.647061%);fill-opacity:1;" d="M 27.808594 37.023438 C 27.839844 37.085938 27.871094 37.152344 27.90625 37.21875 C 27.738281 37.492188 27.660156 37.59375 27.34375 37.683594 C 27.230469 37.695312 27.230469 37.695312 27.113281 37.707031 C 27.113281 37.609375 27.113281 37.511719 27.113281 37.414062 C 27.34375 37.285156 27.570312 37.15625 27.808594 37.023438 Z M 27.808594 37.023438 "/>
<path style=" stroke:none;fill-rule:nonzero;fill:rgb(81.960785%,96.470588%,60.784316%);fill-opacity:1;" d="M 34.636719 25.789062 C 34.667969 25.789062 34.699219 25.789062 34.734375 25.789062 C 34.746094 26.351562 34.746094 26.351562 34.636719 26.570312 C 34.539062 26.570312 34.441406 26.570312 34.339844 26.570312 C 34.414062 26.007812 34.414062 26.007812 34.636719 25.789062 Z M 34.636719 25.789062 "/>
<path style=" stroke:none;fill-rule:nonzero;fill:rgb(74.117649%,86.666667%,56.862748%);fill-opacity:1;" d="M 14.050781 9.28125 C 14.148438 9.3125 14.246094 9.34375 14.347656 9.378906 C 14.234375 9.507812 14.121094 9.636719 14.007812 9.769531 C 13.945312 9.839844 13.882812 9.914062 13.816406 9.988281 C 13.738281 10.074219 13.738281 10.074219 13.65625 10.160156 C 13.625 10.160156 13.589844 10.160156 13.558594 10.160156 C 13.558594 10 13.558594 9.835938 13.558594 9.671875 C 13.65625 9.671875 13.753906 9.671875 13.855469 9.671875 C 13.855469 9.574219 13.855469 9.476562 13.855469 9.378906 C 13.917969 9.34375 13.984375 9.3125 14.050781 9.28125 Z M 14.050781 9.28125 "/>
<path style=" stroke:none;fill-rule:nonzero;fill:rgb(80.392158%,93.725491%,59.607846%);fill-opacity:1;" d="M 26.125 37.609375 C 26.417969 37.609375 26.710938 37.609375 27.015625 37.609375 C 27.015625 37.671875 27.015625 37.738281 27.015625 37.804688 C 26.753906 37.835938 26.492188 37.867188 26.222656 37.902344 C 26.191406 37.804688 26.160156 37.707031 26.125 37.609375 Z M 26.125 37.609375 "/>
<path style=" stroke:none;fill-rule:nonzero;fill:rgb(74.901962%,87.058824%,56.862748%);fill-opacity:1;" d="M 33.546875 30.867188 C 33.578125 30.996094 33.613281 31.125 33.644531 31.257812 C 33.351562 31.5 33.351562 31.5 33.050781 31.75 C 32.988281 31.714844 32.921875 31.683594 32.855469 31.648438 C 33.082031 31.390625 33.3125 31.132812 33.546875 30.867188 Z M 33.546875 30.867188 "/>
<path style=" stroke:none;fill-rule:nonzero;fill:rgb(8.235294%,14.509805%,3.529412%);fill-opacity:1;" d="M 0.296875 26.082031 C 0.328125 26.082031 0.363281 26.082031 0.394531 26.082031 C 0.40625 26.199219 0.421875 26.320312 0.433594 26.441406 C 0.472656 26.773438 0.546875 27.050781 0.691406 27.351562 C 0.628906 27.417969 0.5625 27.480469 0.496094 27.546875 C 0.238281 27.074219 0.277344 26.605469 0.296875 26.082031 Z M 0.296875 26.082031 "/>
<path style=" stroke:none;fill-rule:nonzero;fill:rgb(75.294119%,87.843138%,58.823532%);fill-opacity:1;" d="M 1.386719 11.722656 C 1.449219 11.753906 1.515625 11.785156 1.582031 11.820312 C 1.453125 12.140625 1.320312 12.464844 1.1875 12.796875 C 1.15625 12.796875 1.121094 12.796875 1.089844 12.796875 C 1.078125 12.234375 1.078125 12.234375 1.1875 12.015625 C 1.253906 12.015625 1.316406 12.015625 1.386719 12.015625 C 1.386719 11.917969 1.386719 11.820312 1.386719 11.722656 Z M 1.386719 11.722656 "/>
<path style=" stroke:none;fill-rule:nonzero;fill:rgb(76.078433%,87.450981%,57.647061%);fill-opacity:1;" d="M 9.996094 4.394531 C 10.09375 4.429688 10.191406 4.460938 10.292969 4.492188 C 10.257812 4.558594 10.226562 4.621094 10.191406 4.6875 C 10.128906 4.6875 10.0625 4.6875 9.996094 4.6875 C 9.960938 4.816406 9.929688 4.945312 9.894531 5.078125 C 9.832031 5.046875 9.765625 5.015625 9.699219 4.980469 C 9.734375 4.742188 9.734375 4.742188 9.796875 4.492188 C 9.863281 4.460938 9.925781 4.429688 9.996094 4.394531 Z M 9.996094 4.394531 "/>
<path style=" stroke:none;fill-rule:nonzero;fill:rgb(69.411767%,81.568629%,52.549022%);fill-opacity:1;" d="M 12.964844 3.710938 C 12.996094 3.710938 13.027344 3.710938 13.0625 3.710938 C 13.09375 3.90625 13.128906 4.097656 13.160156 4.296875 C 12.898438 4.363281 12.640625 4.425781 12.371094 4.492188 C 12.464844 4.363281 12.5625 4.234375 12.660156 4.101562 C 12.742188 3.992188 12.742188 3.992188 12.824219 3.882812 C 12.871094 3.828125 12.917969 3.769531 12.964844 3.710938 Z M 12.964844 3.710938 "/>
<path style=" stroke:none;fill-rule:nonzero;fill:rgb(10.196079%,16.078432%,5.490196%);fill-opacity:1;" d="M 17.8125 1.953125 C 17.8125 1.984375 17.8125 2.019531 17.8125 2.050781 C 17.636719 2.074219 17.457031 2.09375 17.28125 2.113281 C 17.183594 2.125 17.082031 2.136719 16.980469 2.148438 C 16.894531 2.148438 16.8125 2.148438 16.722656 2.148438 C 16.660156 2.085938 16.59375 2.019531 16.527344 1.953125 C 17.007812 1.6875 17.308594 1.800781 17.8125 1.953125 Z M 17.8125 1.953125 "/>
<path style=" stroke:none;fill-rule:nonzero;fill:rgb(65.490198%,76.47059%,49.019608%);fill-opacity:1;" d="M 21.871094 0.683594 C 22.679688 0.621094 22.679688 0.621094 23.015625 0.878906 C 23.0625 0.945312 23.109375 1.007812 23.15625 1.074219 C 22.996094 1.046875 22.839844 1.019531 22.679688 0.988281 C 22.589844 0.972656 22.503906 0.957031 22.414062 0.941406 C 22.167969 0.878906 22.167969 0.878906 21.871094 0.683594 Z M 21.871094 0.683594 "/>
<path style=" stroke:none;fill-rule:nonzero;fill:rgb(16.862746%,23.137255%,10.980392%);fill-opacity:1;" d="M 12.964844 36.925781 C 13.105469 36.933594 13.25 36.945312 13.390625 36.957031 C 13.46875 36.960938 13.546875 36.96875 13.628906 36.972656 C 13.890625 37.03125 13.984375 37.117188 14.152344 37.316406 C 13.304688 37.246094 13.304688 37.246094 12.964844 36.925781 Z M 12.964844 36.925781 "/>
<path style=" stroke:none;fill-rule:nonzero;fill:rgb(81.960785%,95.686275%,60.784316%);fill-opacity:1;" d="M 0.296875 14.652344 C 0.363281 14.652344 0.425781 14.652344 0.496094 14.652344 C 0.496094 14.8125 0.496094 14.976562 0.496094 15.140625 C 0.429688 15.140625 0.363281 15.140625 0.296875 15.140625 C 0.296875 15.335938 0.296875 15.527344 0.296875 15.726562 C 0.265625 15.726562 0.230469 15.726562 0.199219 15.726562 C 0.175781 15.585938 0.15625 15.441406 0.136719 15.300781 C 0.125 15.222656 0.113281 15.140625 0.101562 15.058594 C 0.101562 14.988281 0.101562 14.921875 0.0976562 14.847656 C 0.164062 14.785156 0.230469 14.71875 0.296875 14.652344 Z M 0.296875 14.652344 "/>
<path style=" stroke:none;fill-rule:nonzero;fill:rgb(79.607844%,93.333334%,58.823532%);fill-opacity:1;" d="M 24.839844 10.453125 C 24.871094 10.582031 24.902344 10.710938 24.9375 10.84375 C 25.003906 10.84375 25.066406 10.84375 25.136719 10.84375 C 25.101562 11.003906 25.070312 11.164062 25.035156 11.332031 C 24.847656 11.097656 24.738281 10.933594 24.640625 10.648438 C 24.707031 10.582031 24.769531 10.519531 24.839844 10.453125 Z M 24.839844 10.453125 "/>
<path style=" stroke:none;fill-rule:nonzero;fill:rgb(73.725492%,86.274511%,56.470591%);fill-opacity:1;" d="M 23.355469 9.183594 C 23.597656 9.277344 23.597656 9.277344 23.847656 9.378906 C 23.847656 9.441406 23.847656 9.507812 23.847656 9.574219 C 23.945312 9.574219 24.042969 9.574219 24.144531 9.574219 C 24.210938 9.734375 24.277344 9.894531 24.34375 10.0625 C 23.917969 9.890625 23.5625 9.59375 23.355469 9.183594 Z M 23.355469 9.183594 "/>
<path style=" stroke:none;fill-rule:nonzero;fill:rgb(11.372549%,16.078432%,7.450981%);fill-opacity:1;" d="M 8.511719 3.613281 C 8.574219 3.648438 8.640625 3.679688 8.707031 3.710938 C 8.542969 3.957031 8.542969 3.957031 8.3125 4.199219 C 8.039062 4.230469 8.039062 4.230469 7.816406 4.199219 C 8.042969 3.972656 8.242188 3.792969 8.511719 3.613281 Z M 8.511719 3.613281 "/>
<path style=" stroke:none;fill-rule:nonzero;fill:rgb(75.686276%,87.450981%,57.254905%);fill-opacity:1;" d="M 5.542969 30.28125 C 5.671875 30.316406 5.804688 30.347656 5.9375 30.378906 C 5.9375 30.445312 5.9375 30.507812 5.9375 30.574219 C 6.035156 30.574219 6.132812 30.574219 6.234375 30.574219 C 6.203125 30.703125 6.167969 30.832031 6.136719 30.964844 C 5.652344 30.503906 5.652344 30.503906 5.542969 30.28125 Z M 5.542969 30.28125 "/>
<path style=" stroke:none;fill-rule:nonzero;fill:rgb(76.862746%,90.588236%,57.647061%);fill-opacity:1;" d="M 11.875 29.5 C 12.21875 29.644531 12.21875 29.644531 12.566406 29.792969 C 12.371094 29.988281 12.371094 29.988281 12.109375 30 C 12.03125 29.996094 11.953125 29.992188 11.875 29.988281 C 11.875 29.828125 11.875 29.667969 11.875 29.5 Z M 11.875 29.5 "/>
<path style=" stroke:none;fill-rule:nonzero;fill:rgb(78.431374%,91.764706%,55.686277%);fill-opacity:1;" d="M 18.207031 19.539062 C 18.339844 19.601562 18.46875 19.667969 18.605469 19.734375 C 18.507812 19.863281 18.410156 19.992188 18.308594 20.125 C 18.175781 20.089844 18.046875 20.058594 17.910156 20.027344 C 17.976562 20.027344 18.042969 20.027344 18.109375 20.027344 C 18.140625 19.863281 18.175781 19.703125 18.207031 19.539062 Z M 18.207031 19.539062 "/>
<path style=" stroke:none;fill-rule:nonzero;fill:rgb(70.588237%,82.745099%,54.11765%);fill-opacity:1;" d="M 37.40625 12.308594 C 37.503906 12.601562 37.503906 12.601562 37.503906 12.992188 C 37.441406 12.992188 37.375 12.992188 37.308594 12.992188 C 37.308594 13.058594 37.308594 13.121094 37.308594 13.1875 C 37.175781 13.21875 37.046875 13.253906 36.910156 13.285156 C 37.074219 12.964844 37.238281 12.640625 37.40625 12.308594 Z M 37.40625 12.308594 "/>
<path style=" stroke:none;fill-rule:nonzero;fill:rgb(73.725492%,86.274511%,55.29412%);fill-opacity:1;" d="M 1.980469 10.550781 C 2.042969 10.582031 2.109375 10.613281 2.175781 10.648438 C 1.980469 11.082031 1.980469 11.082031 1.78125 11.527344 C 1.75 11.527344 1.714844 11.527344 1.683594 11.527344 C 1.652344 10.933594 1.652344 10.933594 1.683594 10.746094 C 1.78125 10.679688 1.878906 10.617188 1.980469 10.550781 Z M 1.980469 10.550781 "/>
<path style=" stroke:none;fill-rule:nonzero;fill:rgb(74.901962%,86.666667%,56.862748%);fill-opacity:1;" d="M 15.535156 10.160156 C 15.601562 10.191406 15.667969 10.222656 15.734375 10.257812 C 15.539062 10.546875 15.539062 10.546875 15.339844 10.84375 C 15.207031 10.8125 15.078125 10.777344 14.941406 10.746094 C 15.136719 10.550781 15.335938 10.359375 15.535156 10.160156 Z M 15.535156 10.160156 "/>
<path style=" stroke:none;fill-rule:nonzero;fill:rgb(71.372551%,82.352942%,54.901963%);fill-opacity:1;" d="M 22.066406 8.304688 C 22.367188 8.359375 22.664062 8.421875 22.957031 8.5 C 22.925781 8.628906 22.894531 8.757812 22.859375 8.890625 C 22.726562 8.808594 22.59375 8.730469 22.464844 8.652344 C 22.390625 8.605469 22.316406 8.5625 22.242188 8.515625 C 22.183594 8.480469 22.125 8.441406 22.066406 8.402344 C 22.066406 8.367188 22.066406 8.335938 22.066406 8.304688 Z M 22.066406 8.304688 "/>
<path style=" stroke:none;fill-rule:nonzero;fill:rgb(75.686276%,87.058824%,58.039218%);fill-opacity:1;" d="M 10.6875 36.144531 C 11.015625 36.242188 11.339844 36.335938 11.675781 36.4375 C 11.28125 36.535156 11.078125 36.515625 10.6875 36.4375 C 10.6875 36.339844 10.6875 36.242188 10.6875 36.144531 Z M 10.6875 36.144531 "/>
<path style=" stroke:none;fill-rule:nonzero;fill:rgb(79.607844%,92.156863%,61.56863%);fill-opacity:1;" d="M 25.628906 33.605469 C 25.628906 33.667969 25.628906 33.734375 25.628906 33.800781 C 25.402344 33.964844 25.402344 33.964844 25.136719 34.09375 C 25.039062 34.058594 24.941406 34.027344 24.839844 33.996094 C 25.105469 33.71875 25.230469 33.605469 25.628906 33.605469 Z M 25.628906 33.605469 "/>
<path style=" stroke:none;fill-rule:nonzero;fill:rgb(81.568629%,94.901961%,58.823532%);fill-opacity:1;" d="M 3.957031 30.867188 C 4.152344 30.964844 4.152344 30.964844 4.355469 31.0625 C 4.355469 31.257812 4.355469 31.449219 4.355469 31.648438 C 4.101562 31.527344 4.0625 31.414062 3.957031 31.160156 C 3.957031 31.066406 3.957031 30.96875 3.957031 30.867188 Z M 3.957031 30.867188 "/>
<path style=" stroke:none;fill-rule:nonzero;fill:rgb(76.078433%,88.235295%,56.078434%);fill-opacity:1;" d="M 34.933594 25.203125 C 35.050781 25.363281 35.050781 25.363281 35.128906 25.59375 C 34.992188 25.910156 34.992188 25.910156 34.832031 26.179688 C 34.703125 25.796875 34.808594 25.582031 34.933594 25.203125 Z M 34.933594 25.203125 "/>
<path style=" stroke:none;fill-rule:nonzero;fill:rgb(72.156864%,82.745099%,54.509807%);fill-opacity:1;" d="M 23.15625 11.234375 C 23.425781 11.464844 23.535156 11.6875 23.652344 12.015625 C 23.519531 11.984375 23.390625 11.949219 23.253906 11.917969 C 23.222656 11.691406 23.191406 11.464844 23.15625 11.234375 Z M 23.15625 11.234375 "/>
<path style=" stroke:none;fill-rule:nonzero;fill:rgb(72.549021%,85.490197%,53.725493%);fill-opacity:1;" d="M 5.144531 8.597656 C 5.179688 8.660156 5.210938 8.726562 5.246094 8.792969 C 5.210938 8.886719 5.179688 8.984375 5.144531 9.085938 C 5.082031 9.085938 5.015625 9.085938 4.949219 9.085938 C 4.980469 9.214844 5.011719 9.34375 5.046875 9.476562 C 4.917969 9.410156 4.785156 9.347656 4.652344 9.28125 C 4.8125 9.054688 4.976562 8.828125 5.144531 8.597656 Z M 5.144531 8.597656 "/>
<path style=" stroke:none;fill-rule:nonzero;fill:rgb(80.784315%,94.117647%,62.7451%);fill-opacity:1;" d="M 30.082031 6.152344 C 30.417969 6.296875 30.628906 6.480469 30.875 6.742188 C 30.84375 6.804688 30.808594 6.871094 30.777344 6.9375 C 30.605469 6.8125 30.441406 6.679688 30.28125 6.546875 C 30.28125 6.480469 30.28125 6.417969 30.28125 6.351562 C 30.214844 6.351562 30.152344 6.351562 30.082031 6.351562 C 30.082031 6.285156 30.082031 6.21875 30.082031 6.152344 Z M 30.082031 6.152344 "/>
<path style=" stroke:none;fill-rule:nonzero;fill:rgb(81.568629%,94.117647%,62.352943%);fill-opacity:1;" d="M 28.597656 35.167969 C 28.695312 35.167969 28.792969 35.167969 28.894531 35.167969 C 28.863281 35.21875 28.835938 35.273438 28.804688 35.324219 C 28.679688 35.597656 28.640625 35.851562 28.597656 36.144531 C 28.566406 36.144531 28.535156 36.144531 28.5 36.144531 C 28.496094 36 28.496094 35.855469 28.492188 35.710938 C 28.492188 35.628906 28.492188 35.550781 28.492188 35.464844 C 28.5 35.265625 28.5 35.265625 28.597656 35.167969 Z M 28.597656 35.167969 "/>
<path style=" stroke:none;fill-rule:nonzero;fill:rgb(18.431373%,25.098041%,10.588235%);fill-opacity:1;" d="M 26.71875 33.605469 C 26.71875 33.636719 26.71875 33.667969 26.71875 33.703125 C 26.277344 33.75 26.277344 33.75 25.828125 33.800781 C 25.828125 33.863281 25.828125 33.929688 25.828125 33.996094 C 25.699219 33.929688 25.566406 33.867188 25.433594 33.800781 C 25.878906 33.578125 26.230469 33.585938 26.71875 33.605469 Z M 26.71875 33.605469 "/>
<path style=" stroke:none;fill-rule:nonzero;fill:rgb(12.156863%,17.647059%,7.843138%);fill-opacity:1;" d="M 31.863281 32.238281 C 31.996094 32.300781 32.125 32.367188 32.261719 32.433594 C 32.097656 32.5625 31.933594 32.691406 31.765625 32.824219 C 31.734375 32.726562 31.699219 32.628906 31.667969 32.53125 C 31.730469 32.433594 31.796875 32.335938 31.863281 32.238281 Z M 31.863281 32.238281 "/>
<path style=" stroke:none;fill-rule:nonzero;fill:rgb(78.823531%,90.588236%,60.392159%);fill-opacity:1;" d="M 31.765625 30.867188 C 31.472656 31.109375 31.472656 31.109375 31.171875 31.355469 C 31.171875 31.195312 31.171875 31.035156 31.171875 30.867188 C 31.46875 30.769531 31.46875 30.769531 31.765625 30.867188 Z M 31.765625 30.867188 "/>
<path style=" stroke:none;fill-rule:nonzero;fill:rgb(6.666667%,11.372549%,3.529412%);fill-opacity:1;" d="M 11.972656 29.207031 C 12.269531 29.304688 12.269531 29.304688 12.46875 29.597656 C 12.371094 29.632812 12.273438 29.664062 12.171875 29.695312 C 11.957031 29.554688 11.957031 29.554688 11.777344 29.402344 C 11.839844 29.339844 11.90625 29.273438 11.972656 29.207031 Z M 11.972656 29.207031 "/>
<path style=" stroke:none;fill-rule:nonzero;fill:rgb(20.392157%,26.274511%,12.941177%);fill-opacity:1;" d="M 0 20.710938 C 0.0273438 20.769531 0.0585938 20.832031 0.0859375 20.894531 C 0.191406 21.113281 0.191406 21.113281 0.394531 21.296875 C 0.429688 21.390625 0.460938 21.488281 0.496094 21.589844 C 0.398438 21.589844 0.300781 21.589844 0.199219 21.589844 C 0.015625 21.28125 -0.0195312 21.0625 0 20.710938 Z M 0 20.710938 "/>
<path style=" stroke:none;fill-rule:nonzero;fill:rgb(11.372549%,16.862746%,6.666667%);fill-opacity:1;" d="M 35.128906 9.769531 C 35.253906 9.765625 35.378906 9.761719 35.507812 9.757812 C 35.578125 9.753906 35.648438 9.75 35.71875 9.75 C 35.921875 9.769531 35.921875 9.769531 36.21875 9.964844 C 35.957031 9.996094 35.695312 10.027344 35.425781 10.0625 C 35.425781 9.996094 35.425781 9.933594 35.425781 9.867188 C 35.328125 9.835938 35.230469 9.800781 35.128906 9.769531 Z M 35.128906 9.769531 "/>
<path style=" stroke:none;fill-rule:nonzero;fill:rgb(72.156864%,84.705883%,54.509807%);fill-opacity:1;" d="M 16.625 9.476562 C 16.691406 9.507812 16.753906 9.539062 16.824219 9.574219 C 16.789062 9.636719 16.757812 9.703125 16.722656 9.769531 C 16.660156 9.769531 16.59375 9.769531 16.527344 9.769531 C 16.492188 9.867188 16.460938 9.960938 16.425781 10.0625 C 16.363281 10.03125 16.296875 9.996094 16.230469 9.964844 C 16.230469 9.867188 16.230469 9.769531 16.230469 9.671875 C 16.414062 9.566406 16.414062 9.566406 16.625 9.476562 Z M 16.625 9.476562 "/>
<path style=" stroke:none;fill-rule:nonzero;fill:rgb(12.54902%,18.039216%,7.450981%);fill-opacity:1;" d="M 2.671875 9.574219 C 2.738281 9.671875 2.800781 9.765625 2.871094 9.867188 C 2.707031 10.058594 2.542969 10.253906 2.375 10.453125 C 2.375 10.089844 2.5 9.886719 2.671875 9.574219 Z M 2.671875 9.574219 "/>
<path style=" stroke:none;fill-rule:nonzero;fill:rgb(70.588237%,83.137256%,53.333336%);fill-opacity:1;" d="M 28.5 2.734375 C 28.5 2.832031 28.5 2.929688 28.5 3.027344 C 28.566406 3.027344 28.628906 3.027344 28.699219 3.027344 C 28.699219 3.09375 28.699219 3.15625 28.699219 3.222656 C 28.496094 3.164062 28.300781 3.097656 28.105469 3.027344 C 28.070312 2.964844 28.039062 2.898438 28.003906 2.832031 C 28.203125 2.734375 28.203125 2.734375 28.5 2.734375 Z M 28.5 2.734375 "/>
<path style=" stroke:none;fill-rule:nonzero;fill:rgb(67.058825%,78.039217%,50.588238%);fill-opacity:1;" d="M 24.34375 1.171875 C 24.507812 1.203125 24.671875 1.238281 24.839844 1.269531 C 24.839844 1.335938 24.839844 1.398438 24.839844 1.464844 C 24.96875 1.496094 25.101562 1.53125 25.234375 1.5625 C 25.035156 1.660156 25.035156 1.660156 24.84375 1.605469 C 24.773438 1.578125 24.703125 1.550781 24.628906 1.519531 C 24.554688 1.492188 24.484375 1.464844 24.410156 1.433594 C 24.328125 1.402344 24.328125 1.402344 24.246094 1.367188 C 24.277344 1.304688 24.308594 1.238281 24.34375 1.171875 Z M 24.34375 1.171875 "/>
<path style=" stroke:none;fill-rule:nonzero;fill:rgb(77.254903%,89.803922%,59.215689%);fill-opacity:1;" d="M 23.355469 0.878906 C 23.652344 0.898438 23.652344 0.898438 23.949219 0.976562 C 24.011719 1.074219 24.078125 1.171875 24.144531 1.269531 C 23.820312 1.207031 23.492188 1.140625 23.15625 1.074219 C 23.222656 1.011719 23.285156 0.945312 23.355469 0.878906 Z M 23.355469 0.878906 "/>
<path style=" stroke:none;fill-rule:nonzero;fill:rgb(12.156863%,18.039216%,6.666667%);fill-opacity:1;" d="M 24.9375 36.925781 C 25.183594 36.972656 25.183594 36.972656 25.433594 37.023438 C 25.433594 37.085938 25.433594 37.152344 25.433594 37.21875 C 25.53125 37.25 25.628906 37.28125 25.730469 37.316406 C 25.632812 37.347656 25.535156 37.378906 25.433594 37.414062 C 25.269531 37.253906 25.105469 37.089844 24.9375 36.925781 Z M 24.9375 36.925781 "/>
<path style=" stroke:none;fill-rule:nonzero;fill:rgb(75.686276%,87.450981%,56.470591%);fill-opacity:1;" d="M 6.332031 31.160156 C 6.570312 31.1875 6.570312 31.1875 6.828125 31.257812 C 6.957031 31.460938 6.957031 31.460938 7.027344 31.648438 C 6.929688 31.648438 6.832031 31.648438 6.730469 31.648438 C 6.511719 31.40625 6.511719 31.40625 6.332031 31.160156 Z M 6.332031 31.160156 "/>
<path style=" stroke:none;fill-rule:nonzero;fill:rgb(71.764708%,83.529413%,55.29412%);fill-opacity:1;" d="M 35.722656 27.546875 C 35.796875 27.71875 35.796875 27.71875 35.824219 27.9375 C 35.632812 28.15625 35.632812 28.15625 35.425781 28.328125 C 35.425781 27.980469 35.535156 27.835938 35.722656 27.546875 Z M 35.722656 27.546875 "/>
<path style=" stroke:none;fill-rule:nonzero;fill:rgb(81.568629%,96.078432%,60.784316%);fill-opacity:1;" d="M 36.121094 26.765625 C 36.183594 26.765625 36.25 26.765625 36.316406 26.765625 C 36.351562 26.894531 36.382812 27.023438 36.417969 27.15625 C 36.351562 27.15625 36.285156 27.15625 36.21875 27.15625 C 36.1875 27.253906 36.152344 27.351562 36.121094 27.449219 C 36.085938 27.449219 36.054688 27.449219 36.019531 27.449219 C 36.015625 27.253906 36.015625 27.058594 36.019531 26.863281 C 36.054688 26.832031 36.085938 26.800781 36.121094 26.765625 Z M 36.121094 26.765625 "/>
<path style=" stroke:none;fill-rule:nonzero;fill:rgb(73.725492%,85.882354%,56.078434%);fill-opacity:1;" d="M 0.792969 13.382812 C 0.855469 13.414062 0.921875 13.449219 0.988281 13.480469 C 0.925781 13.707031 0.859375 13.933594 0.792969 14.164062 C 0.726562 14.164062 0.660156 14.164062 0.59375 14.164062 C 0.679688 13.492188 0.679688 13.492188 0.792969 13.382812 Z M 0.792969 13.382812 "/>
<path style=" stroke:none;fill-rule:nonzero;fill:rgb(14.509805%,20%,8.627451%);fill-opacity:1;" d="M 24.144531 10.0625 C 24.371094 10.273438 24.558594 10.496094 24.738281 10.746094 C 24.707031 10.808594 24.675781 10.875 24.640625 10.941406 C 24.320312 10.664062 24.191406 10.484375 24.144531 10.0625 Z M 24.144531 10.0625 "/>
<path style=" stroke:none;fill-rule:nonzero;fill:rgb(75.686276%,89.019608%,56.470591%);fill-opacity:1;" d="M 13.160156 10.257812 C 13.226562 10.257812 13.292969 10.257812 13.359375 10.257812 C 13.304688 10.578125 13.210938 10.726562 12.964844 10.941406 C 12.949219 10.707031 12.949219 10.707031 12.964844 10.453125 C 13.027344 10.386719 13.09375 10.324219 13.160156 10.257812 Z M 13.160156 10.257812 "/>
<path style=" stroke:none;fill-rule:nonzero;fill:rgb(72.156864%,84.705883%,53.333336%);fill-opacity:1;" d="M 31.964844 8.011719 C 32.222656 8.113281 32.339844 8.171875 32.484375 8.414062 C 32.507812 8.472656 32.53125 8.535156 32.558594 8.597656 C 32.492188 8.597656 32.425781 8.597656 32.359375 8.597656 C 32.359375 8.53125 32.359375 8.46875 32.359375 8.402344 C 32.261719 8.433594 32.164062 8.464844 32.0625 8.5 C 32.03125 8.335938 31.996094 8.175781 31.964844 8.011719 Z M 31.964844 8.011719 "/>
<path style=" stroke:none;fill-rule:nonzero;fill:rgb(71.372551%,83.137256%,53.725493%);fill-opacity:1;" d="M 5.738281 7.914062 C 5.804688 8.042969 5.871094 8.171875 5.9375 8.304688 C 5.808594 8.304688 5.675781 8.304688 5.542969 8.304688 C 5.507812 8.398438 5.476562 8.496094 5.441406 8.597656 C 5.378906 8.5625 5.3125 8.53125 5.246094 8.5 C 5.40625 8.304688 5.570312 8.113281 5.738281 7.914062 Z M 5.738281 7.914062 "/>
<path style=" stroke:none;fill-rule:nonzero;fill:rgb(69.411767%,80.784315%,54.11765%);fill-opacity:1;" d="M 31.964844 5.761719 C 32.207031 5.8125 32.207031 5.8125 32.457031 5.859375 C 32.523438 6.054688 32.589844 6.246094 32.65625 6.449219 C 32.539062 6.351562 32.425781 6.257812 32.308594 6.160156 C 32.246094 6.105469 32.179688 6.054688 32.113281 6 C 32.066406 5.953125 32.015625 5.90625 31.964844 5.859375 C 31.964844 5.828125 31.964844 5.796875 31.964844 5.761719 Z M 31.964844 5.761719 "/>
<path style=" stroke:none;fill-rule:nonzero;fill:rgb(6.27451%,10.980392%,3.137255%);fill-opacity:1;" d="M 7.816406 5.664062 C 7.914062 5.699219 8.011719 5.730469 8.113281 5.761719 C 7.886719 5.925781 7.65625 6.085938 7.421875 6.25 C 7.421875 6.15625 7.421875 6.058594 7.421875 5.957031 C 7.601562 5.789062 7.601562 5.789062 7.816406 5.664062 Z M 7.816406 5.664062 "/>
<path style=" stroke:none;fill-rule:nonzero;fill:rgb(14.901961%,21.176471%,7.843138%);fill-opacity:1;" d="M 23.253906 1.074219 C 23.746094 1.171875 23.746094 1.171875 24.246094 1.269531 C 24.246094 1.300781 24.246094 1.335938 24.246094 1.367188 C 23.949219 1.367188 23.65625 1.367188 23.355469 1.367188 C 23.320312 1.269531 23.289062 1.175781 23.253906 1.074219 Z M 23.253906 1.074219 "/>
</g>
</svg>
